M48
; DRILL file {KiCad 9.0.7} date 2026-03-27T23:54:51+0100
; FORMAT={-:-/ absolute / metric / decimal}
; #@! TF.CreationDate,2026-03-27T23:54:51+01:00
; #@! TF.GenerationSoftware,Kicad,Pcbnew,9.0.7
; #@! TF.FileFunction,Plated,1,2,PTH
FMAT,2
METRIC
; #@! TA.AperFunction,Plated,PTH,ViaDrill
T1C0.300
; #@! TA.AperFunction,Plated,PTH,ComponentDrill
T2C0.889
; #@! TA.AperFunction,Plated,PTH,ComponentDrill
T3C1.000
; #@! TA.AperFunction,Plated,PTH,ComponentDrill
T4C1.500
%
G90
G05
T1
X97.1Y-97.64
X97.34Y-115.17
X98.14Y-124.04
X98.84Y-113.88
X114.55Y-109.28
X116.73Y-94.051
X118.4Y-133.191
X119.03Y-90.84
X123.745Y-93.345
X123.96Y-89.91
X125.67Y-129.25
X126.09Y-102.16
X130.14Y-96.83
X131.59Y-121.53
X131.6Y-131.63
X132.9Y-96.537
X134.2Y-104.3
X141.7Y-117.04
X142.21Y-119.8
X142.29Y-95.49
X143.41Y-97.69
X143.41Y-108.6
X144.318Y-95.498
X145.71Y-106.79
X149.5Y-97.0
X149.5Y-131.6
T2
X137.636Y-84.9
X137.636Y-87.44
X137.636Y-89.98
X137.636Y-92.52
X137.636Y-95.06
X137.636Y-97.6
X137.636Y-100.14
X152.876Y-84.9
X152.876Y-87.44
X152.876Y-89.98
X152.876Y-92.52
X152.876Y-95.06
X152.876Y-97.6
X152.876Y-100.14
T3
X95.25Y-110.49
X95.25Y-113.03
X95.25Y-115.57
X95.25Y-118.11
X99.906Y-92.75
X99.906Y-95.25
X99.906Y-97.75
X114.406Y-92.75
X114.406Y-97.75
T4
X93.821Y-133.191
X100.171Y-130.651
X112.871Y-133.191
X119.221Y-130.651
X131.921Y-133.191
X138.271Y-130.651
X150.971Y-133.191
X157.321Y-130.651
T4
G00X106.756Y-89.65
M15
G01X108.056Y-89.65
M16
G05
G00X106.756Y-100.85
M15
G01X108.056Y-100.85
M16
G05
M30
