%TF.GenerationSoftware,KiCad,Pcbnew,9.0.7*%
%TF.CreationDate,2026-03-27T23:54:51+01:00*%
%TF.ProjectId,keypad,6b657970-6164-42e6-9b69-6361645f7063,rev?*%
%TF.SameCoordinates,Original*%
%TF.FileFunction,Drillmap*%
%TF.FilePolarity,Positive*%
%FSLAX45Y45*%
G04 Gerber Fmt 4.5, Leading zero omitted, Abs format (unit mm)*
G04 Created by KiCad (PCBNEW 9.0.7) date 2026-03-27 23:54:51*
%MOMM*%
%LPD*%
G01*
G04 APERTURE LIST*
%ADD10C,0.050000*%
%ADD11C,0.200000*%
%ADD12C,0.100000*%
%ADD13C,0.150000*%
G04 APERTURE END LIST*
D10*
X16368750Y-14763750D02*
X8872500Y-14763750D01*
X16668750Y-8634375D02*
X16668750Y-14463750D01*
X8572500Y-14463750D02*
X8572500Y-8634375D01*
X8572500Y-8634375D02*
G75*
G02*
X8872500Y-8334375I300000J0D01*
G01*
X16368750Y-8334375D02*
G75*
G02*
X16668745Y-8634375I0J-299995D01*
G01*
X8872500Y-8334375D02*
X16368750Y-8334375D01*
X16668750Y-14463750D02*
G75*
G02*
X16368750Y-14763750I-300000J0D01*
G01*
X8872500Y-14763750D02*
G75*
G02*
X8572500Y-14463750I0J300000D01*
G01*
D11*
D12*
X9695000Y-9749000D02*
X9725000Y-9779000D01*
X9725000Y-9749000D02*
X9695000Y-9779000D01*
X9719000Y-11502000D02*
X9749000Y-11532000D01*
X9749000Y-11502000D02*
X9719000Y-11532000D01*
X9799000Y-12389000D02*
X9829000Y-12419000D01*
X9829000Y-12389000D02*
X9799000Y-12419000D01*
X9869000Y-11373000D02*
X9899000Y-11403000D01*
X9899000Y-11373000D02*
X9869000Y-11403000D01*
X11440000Y-10913000D02*
X11470000Y-10943000D01*
X11470000Y-10913000D02*
X11440000Y-10943000D01*
X11658000Y-9390100D02*
X11688000Y-9420100D01*
X11688000Y-9390100D02*
X11658000Y-9420100D01*
X11825000Y-13304125D02*
X11855000Y-13334125D01*
X11855000Y-13304125D02*
X11825000Y-13334125D01*
X11888000Y-9069000D02*
X11918000Y-9099000D01*
X11918000Y-9069000D02*
X11888000Y-9099000D01*
X12359500Y-9319500D02*
X12389500Y-9349500D01*
X12389500Y-9319500D02*
X12359500Y-9349500D01*
X12381000Y-8976000D02*
X12411000Y-9006000D01*
X12411000Y-8976000D02*
X12381000Y-9006000D01*
X12552000Y-12910000D02*
X12582000Y-12940000D01*
X12582000Y-12910000D02*
X12552000Y-12940000D01*
X12594000Y-10201000D02*
X12624000Y-10231000D01*
X12624000Y-10201000D02*
X12594000Y-10231000D01*
X12999000Y-9668000D02*
X13029000Y-9698000D01*
X13029000Y-9668000D02*
X12999000Y-9698000D01*
X13144000Y-12138000D02*
X13174000Y-12168000D01*
X13174000Y-12138000D02*
X13144000Y-12168000D01*
X13145000Y-13148000D02*
X13175000Y-13178000D01*
X13175000Y-13148000D02*
X13145000Y-13178000D01*
X13275000Y-9638700D02*
X13305000Y-9668700D01*
X13305000Y-9638700D02*
X13275000Y-9668700D01*
X13405000Y-10415000D02*
X13435000Y-10445000D01*
X13435000Y-10415000D02*
X13405000Y-10445000D01*
X14155000Y-11689000D02*
X14185000Y-11719000D01*
X14185000Y-11689000D02*
X14155000Y-11719000D01*
X14206000Y-11965000D02*
X14236000Y-11995000D01*
X14236000Y-11965000D02*
X14206000Y-11995000D01*
X14214000Y-9534000D02*
X14244000Y-9564000D01*
X14244000Y-9534000D02*
X14214000Y-9564000D01*
X14326000Y-9754000D02*
X14356000Y-9784000D01*
X14356000Y-9754000D02*
X14326000Y-9784000D01*
X14326000Y-10845000D02*
X14356000Y-10875000D01*
X14356000Y-10845000D02*
X14326000Y-10875000D01*
X14416823Y-9534824D02*
X14446823Y-9564824D01*
X14446823Y-9534824D02*
X14416823Y-9564824D01*
X14556000Y-10664000D02*
X14586000Y-10694000D01*
X14586000Y-10664000D02*
X14556000Y-10694000D01*
X14935000Y-9685000D02*
X14965000Y-9715000D01*
X14965000Y-9685000D02*
X14935000Y-9715000D01*
X14935000Y-13145000D02*
X14965000Y-13175000D01*
X14965000Y-13145000D02*
X14935000Y-13175000D01*
X13808075Y-8490000D02*
G75*
G02*
X13719175Y-8490000I-44450J0D01*
G01*
X13719175Y-8490000D02*
G75*
G02*
X13808075Y-8490000I44450J0D01*
G01*
X13808075Y-8744000D02*
G75*
G02*
X13719175Y-8744000I-44450J0D01*
G01*
X13719175Y-8744000D02*
G75*
G02*
X13808075Y-8744000I44450J0D01*
G01*
X13808075Y-8998000D02*
G75*
G02*
X13719175Y-8998000I-44450J0D01*
G01*
X13719175Y-8998000D02*
G75*
G02*
X13808075Y-8998000I44450J0D01*
G01*
X13808075Y-9252000D02*
G75*
G02*
X13719175Y-9252000I-44450J0D01*
G01*
X13719175Y-9252000D02*
G75*
G02*
X13808075Y-9252000I44450J0D01*
G01*
X13808075Y-9506000D02*
G75*
G02*
X13719175Y-9506000I-44450J0D01*
G01*
X13719175Y-9506000D02*
G75*
G02*
X13808075Y-9506000I44450J0D01*
G01*
X13808075Y-9760000D02*
G75*
G02*
X13719175Y-9760000I-44450J0D01*
G01*
X13719175Y-9760000D02*
G75*
G02*
X13808075Y-9760000I44450J0D01*
G01*
X13808075Y-10014000D02*
G75*
G02*
X13719175Y-10014000I-44450J0D01*
G01*
X13719175Y-10014000D02*
G75*
G02*
X13808075Y-10014000I44450J0D01*
G01*
X15332075Y-8490000D02*
G75*
G02*
X15243175Y-8490000I-44450J0D01*
G01*
X15243175Y-8490000D02*
G75*
G02*
X15332075Y-8490000I44450J0D01*
G01*
X15332075Y-8744000D02*
G75*
G02*
X15243175Y-8744000I-44450J0D01*
G01*
X15243175Y-8744000D02*
G75*
G02*
X15332075Y-8744000I44450J0D01*
G01*
X15332075Y-8998000D02*
G75*
G02*
X15243175Y-8998000I-44450J0D01*
G01*
X15243175Y-8998000D02*
G75*
G02*
X15332075Y-8998000I44450J0D01*
G01*
X15332075Y-9252000D02*
G75*
G02*
X15243175Y-9252000I-44450J0D01*
G01*
X15243175Y-9252000D02*
G75*
G02*
X15332075Y-9252000I44450J0D01*
G01*
X15332075Y-9506000D02*
G75*
G02*
X15243175Y-9506000I-44450J0D01*
G01*
X15243175Y-9506000D02*
G75*
G02*
X15332075Y-9506000I44450J0D01*
G01*
X15332075Y-9760000D02*
G75*
G02*
X15243175Y-9760000I-44450J0D01*
G01*
X15243175Y-9760000D02*
G75*
G02*
X15332075Y-9760000I44450J0D01*
G01*
X15332075Y-10014000D02*
G75*
G02*
X15243175Y-10014000I-44450J0D01*
G01*
X15243175Y-10014000D02*
G75*
G02*
X15332075Y-10014000I44450J0D01*
G01*
X9525000Y-10999000D02*
X9525000Y-11099000D01*
X9475000Y-11049000D02*
X9575000Y-11049000D01*
X9525000Y-11253000D02*
X9525000Y-11353000D01*
X9475000Y-11303000D02*
X9575000Y-11303000D01*
X9525000Y-11507000D02*
X9525000Y-11607000D01*
X9475000Y-11557000D02*
X9575000Y-11557000D01*
X9525000Y-11761000D02*
X9525000Y-11861000D01*
X9475000Y-11811000D02*
X9575000Y-11811000D01*
X9990625Y-9225000D02*
X9990625Y-9325000D01*
X9940625Y-9275000D02*
X10040625Y-9275000D01*
X9990625Y-9475000D02*
X9990625Y-9575000D01*
X9940625Y-9525000D02*
X10040625Y-9525000D01*
X9990625Y-9725000D02*
X9990625Y-9825000D01*
X9940625Y-9775000D02*
X10040625Y-9775000D01*
X11440625Y-9225000D02*
X11440625Y-9325000D01*
X11390625Y-9275000D02*
X11490625Y-9275000D01*
X11440625Y-9725000D02*
X11440625Y-9825000D01*
X11390625Y-9775000D02*
X11490625Y-9775000D01*
D13*
X9435159Y-13372158D02*
X9435159Y-13266091D01*
X9329092Y-13266091D01*
X9329092Y-13372158D01*
X9435159Y-13372158D01*
X10070159Y-13118158D02*
X10070159Y-13012091D01*
X9964092Y-13012091D01*
X9964092Y-13118158D01*
X10070159Y-13118158D01*
X10793659Y-9018034D02*
X10793659Y-8911967D01*
X10687592Y-8911967D01*
X10687592Y-9018034D01*
X10793659Y-9018034D01*
D12*
X10675625Y-9040000D02*
X10805625Y-9040000D01*
X10805625Y-8890000D02*
G75*
G02*
X10805625Y-9040000I0J-75000D01*
G01*
X10805625Y-8890000D02*
X10675625Y-8890000D01*
X10675625Y-8890000D02*
G75*
G03*
X10675625Y-9040000I0J-75000D01*
G01*
D13*
X10793659Y-10138034D02*
X10793659Y-10031967D01*
X10687592Y-10031967D01*
X10687592Y-10138034D01*
X10793659Y-10138034D01*
D12*
X10675625Y-10160000D02*
X10805625Y-10160000D01*
X10805625Y-10010000D02*
G75*
G02*
X10805625Y-10160000I0J-75000D01*
G01*
X10805625Y-10010000D02*
X10675625Y-10010000D01*
X10675625Y-10010000D02*
G75*
G03*
X10675625Y-10160000I0J-75000D01*
G01*
D13*
X11340158Y-13372158D02*
X11340158Y-13266091D01*
X11234091Y-13266091D01*
X11234091Y-13372158D01*
X11340158Y-13372158D01*
X11975158Y-13118158D02*
X11975158Y-13012091D01*
X11869091Y-13012091D01*
X11869091Y-13118158D01*
X11975158Y-13118158D01*
X13245158Y-13372158D02*
X13245158Y-13266091D01*
X13139091Y-13266091D01*
X13139091Y-13372158D01*
X13245158Y-13372158D01*
X13880158Y-13118158D02*
X13880158Y-13012091D01*
X13774091Y-13012091D01*
X13774091Y-13118158D01*
X13880158Y-13118158D01*
X15150158Y-13372158D02*
X15150158Y-13266091D01*
X15044091Y-13266091D01*
X15044091Y-13372158D01*
X15150158Y-13372158D01*
X15785158Y-13118158D02*
X15785158Y-13012091D01*
X15679091Y-13012091D01*
X15679091Y-13118158D01*
X15785158Y-13118158D01*
D11*
X8830777Y-15077734D02*
X8830777Y-14877734D01*
X8830777Y-14877734D02*
X8878396Y-14877734D01*
X8878396Y-14877734D02*
X8906967Y-14887258D01*
X8906967Y-14887258D02*
X8926015Y-14906305D01*
X8926015Y-14906305D02*
X8935539Y-14925353D01*
X8935539Y-14925353D02*
X8945063Y-14963448D01*
X8945063Y-14963448D02*
X8945063Y-14992019D01*
X8945063Y-14992019D02*
X8935539Y-15030115D01*
X8935539Y-15030115D02*
X8926015Y-15049162D01*
X8926015Y-15049162D02*
X8906967Y-15068210D01*
X8906967Y-15068210D02*
X8878396Y-15077734D01*
X8878396Y-15077734D02*
X8830777Y-15077734D01*
X9030777Y-15077734D02*
X9030777Y-14944400D01*
X9030777Y-14982496D02*
X9040301Y-14963448D01*
X9040301Y-14963448D02*
X9049824Y-14953924D01*
X9049824Y-14953924D02*
X9068872Y-14944400D01*
X9068872Y-14944400D02*
X9087920Y-14944400D01*
X9154586Y-15077734D02*
X9154586Y-14944400D01*
X9154586Y-14877734D02*
X9145063Y-14887258D01*
X9145063Y-14887258D02*
X9154586Y-14896781D01*
X9154586Y-14896781D02*
X9164110Y-14887258D01*
X9164110Y-14887258D02*
X9154586Y-14877734D01*
X9154586Y-14877734D02*
X9154586Y-14896781D01*
X9278396Y-15077734D02*
X9259348Y-15068210D01*
X9259348Y-15068210D02*
X9249824Y-15049162D01*
X9249824Y-15049162D02*
X9249824Y-14877734D01*
X9383158Y-15077734D02*
X9364110Y-15068210D01*
X9364110Y-15068210D02*
X9354586Y-15049162D01*
X9354586Y-15049162D02*
X9354586Y-14877734D01*
X9611729Y-15077734D02*
X9611729Y-14877734D01*
X9611729Y-14877734D02*
X9678396Y-15020591D01*
X9678396Y-15020591D02*
X9745063Y-14877734D01*
X9745063Y-14877734D02*
X9745063Y-15077734D01*
X9926015Y-15077734D02*
X9926015Y-14972972D01*
X9926015Y-14972972D02*
X9916491Y-14953924D01*
X9916491Y-14953924D02*
X9897444Y-14944400D01*
X9897444Y-14944400D02*
X9859348Y-14944400D01*
X9859348Y-14944400D02*
X9840301Y-14953924D01*
X9926015Y-15068210D02*
X9906967Y-15077734D01*
X9906967Y-15077734D02*
X9859348Y-15077734D01*
X9859348Y-15077734D02*
X9840301Y-15068210D01*
X9840301Y-15068210D02*
X9830777Y-15049162D01*
X9830777Y-15049162D02*
X9830777Y-15030115D01*
X9830777Y-15030115D02*
X9840301Y-15011067D01*
X9840301Y-15011067D02*
X9859348Y-15001543D01*
X9859348Y-15001543D02*
X9906967Y-15001543D01*
X9906967Y-15001543D02*
X9926015Y-14992019D01*
X10021253Y-14944400D02*
X10021253Y-15144400D01*
X10021253Y-14953924D02*
X10040301Y-14944400D01*
X10040301Y-14944400D02*
X10078396Y-14944400D01*
X10078396Y-14944400D02*
X10097444Y-14953924D01*
X10097444Y-14953924D02*
X10106967Y-14963448D01*
X10106967Y-14963448D02*
X10116491Y-14982496D01*
X10116491Y-14982496D02*
X10116491Y-15039638D01*
X10116491Y-15039638D02*
X10106967Y-15058686D01*
X10106967Y-15058686D02*
X10097444Y-15068210D01*
X10097444Y-15068210D02*
X10078396Y-15077734D01*
X10078396Y-15077734D02*
X10040301Y-15077734D01*
X10040301Y-15077734D02*
X10021253Y-15068210D01*
X10202205Y-15058686D02*
X10211729Y-15068210D01*
X10211729Y-15068210D02*
X10202205Y-15077734D01*
X10202205Y-15077734D02*
X10192682Y-15068210D01*
X10192682Y-15068210D02*
X10202205Y-15058686D01*
X10202205Y-15058686D02*
X10202205Y-15077734D01*
X10202205Y-14953924D02*
X10211729Y-14963448D01*
X10211729Y-14963448D02*
X10202205Y-14972972D01*
X10202205Y-14972972D02*
X10192682Y-14963448D01*
X10192682Y-14963448D02*
X10202205Y-14953924D01*
X10202205Y-14953924D02*
X10202205Y-14972972D01*
D12*
X8540000Y-15391250D02*
X8570000Y-15421250D01*
X8570000Y-15391250D02*
X8540000Y-15421250D01*
D11*
X8868872Y-15297734D02*
X8887920Y-15297734D01*
X8887920Y-15297734D02*
X8906967Y-15307258D01*
X8906967Y-15307258D02*
X8916491Y-15316781D01*
X8916491Y-15316781D02*
X8926015Y-15335829D01*
X8926015Y-15335829D02*
X8935539Y-15373924D01*
X8935539Y-15373924D02*
X8935539Y-15421543D01*
X8935539Y-15421543D02*
X8926015Y-15459638D01*
X8926015Y-15459638D02*
X8916491Y-15478686D01*
X8916491Y-15478686D02*
X8906967Y-15488210D01*
X8906967Y-15488210D02*
X8887920Y-15497734D01*
X8887920Y-15497734D02*
X8868872Y-15497734D01*
X8868872Y-15497734D02*
X8849824Y-15488210D01*
X8849824Y-15488210D02*
X8840301Y-15478686D01*
X8840301Y-15478686D02*
X8830777Y-15459638D01*
X8830777Y-15459638D02*
X8821253Y-15421543D01*
X8821253Y-15421543D02*
X8821253Y-15373924D01*
X8821253Y-15373924D02*
X8830777Y-15335829D01*
X8830777Y-15335829D02*
X8840301Y-15316781D01*
X8840301Y-15316781D02*
X8849824Y-15307258D01*
X8849824Y-15307258D02*
X8868872Y-15297734D01*
X9021253Y-15478686D02*
X9030777Y-15488210D01*
X9030777Y-15488210D02*
X9021253Y-15497734D01*
X9021253Y-15497734D02*
X9011729Y-15488210D01*
X9011729Y-15488210D02*
X9021253Y-15478686D01*
X9021253Y-15478686D02*
X9021253Y-15497734D01*
X9097444Y-15297734D02*
X9221253Y-15297734D01*
X9221253Y-15297734D02*
X9154586Y-15373924D01*
X9154586Y-15373924D02*
X9183158Y-15373924D01*
X9183158Y-15373924D02*
X9202205Y-15383448D01*
X9202205Y-15383448D02*
X9211729Y-15392972D01*
X9211729Y-15392972D02*
X9221253Y-15412019D01*
X9221253Y-15412019D02*
X9221253Y-15459638D01*
X9221253Y-15459638D02*
X9211729Y-15478686D01*
X9211729Y-15478686D02*
X9202205Y-15488210D01*
X9202205Y-15488210D02*
X9183158Y-15497734D01*
X9183158Y-15497734D02*
X9126015Y-15497734D01*
X9126015Y-15497734D02*
X9106967Y-15488210D01*
X9106967Y-15488210D02*
X9097444Y-15478686D01*
X9345063Y-15297734D02*
X9364110Y-15297734D01*
X9364110Y-15297734D02*
X9383158Y-15307258D01*
X9383158Y-15307258D02*
X9392682Y-15316781D01*
X9392682Y-15316781D02*
X9402205Y-15335829D01*
X9402205Y-15335829D02*
X9411729Y-15373924D01*
X9411729Y-15373924D02*
X9411729Y-15421543D01*
X9411729Y-15421543D02*
X9402205Y-15459638D01*
X9402205Y-15459638D02*
X9392682Y-15478686D01*
X9392682Y-15478686D02*
X9383158Y-15488210D01*
X9383158Y-15488210D02*
X9364110Y-15497734D01*
X9364110Y-15497734D02*
X9345063Y-15497734D01*
X9345063Y-15497734D02*
X9326015Y-15488210D01*
X9326015Y-15488210D02*
X9316491Y-15478686D01*
X9316491Y-15478686D02*
X9306967Y-15459638D01*
X9306967Y-15459638D02*
X9297444Y-15421543D01*
X9297444Y-15421543D02*
X9297444Y-15373924D01*
X9297444Y-15373924D02*
X9306967Y-15335829D01*
X9306967Y-15335829D02*
X9316491Y-15316781D01*
X9316491Y-15316781D02*
X9326015Y-15307258D01*
X9326015Y-15307258D02*
X9345063Y-15297734D01*
X9535539Y-15297734D02*
X9554586Y-15297734D01*
X9554586Y-15297734D02*
X9573634Y-15307258D01*
X9573634Y-15307258D02*
X9583158Y-15316781D01*
X9583158Y-15316781D02*
X9592682Y-15335829D01*
X9592682Y-15335829D02*
X9602205Y-15373924D01*
X9602205Y-15373924D02*
X9602205Y-15421543D01*
X9602205Y-15421543D02*
X9592682Y-15459638D01*
X9592682Y-15459638D02*
X9583158Y-15478686D01*
X9583158Y-15478686D02*
X9573634Y-15488210D01*
X9573634Y-15488210D02*
X9554586Y-15497734D01*
X9554586Y-15497734D02*
X9535539Y-15497734D01*
X9535539Y-15497734D02*
X9516491Y-15488210D01*
X9516491Y-15488210D02*
X9506967Y-15478686D01*
X9506967Y-15478686D02*
X9497444Y-15459638D01*
X9497444Y-15459638D02*
X9487920Y-15421543D01*
X9487920Y-15421543D02*
X9487920Y-15373924D01*
X9487920Y-15373924D02*
X9497444Y-15335829D01*
X9497444Y-15335829D02*
X9506967Y-15316781D01*
X9506967Y-15316781D02*
X9516491Y-15307258D01*
X9516491Y-15307258D02*
X9535539Y-15297734D01*
X9687920Y-15497734D02*
X9687920Y-15364400D01*
X9687920Y-15383448D02*
X9697444Y-15373924D01*
X9697444Y-15373924D02*
X9716491Y-15364400D01*
X9716491Y-15364400D02*
X9745063Y-15364400D01*
X9745063Y-15364400D02*
X9764110Y-15373924D01*
X9764110Y-15373924D02*
X9773634Y-15392972D01*
X9773634Y-15392972D02*
X9773634Y-15497734D01*
X9773634Y-15392972D02*
X9783158Y-15373924D01*
X9783158Y-15373924D02*
X9802205Y-15364400D01*
X9802205Y-15364400D02*
X9830777Y-15364400D01*
X9830777Y-15364400D02*
X9849825Y-15373924D01*
X9849825Y-15373924D02*
X9859348Y-15392972D01*
X9859348Y-15392972D02*
X9859348Y-15497734D01*
X9954586Y-15497734D02*
X9954586Y-15364400D01*
X9954586Y-15383448D02*
X9964110Y-15373924D01*
X9964110Y-15373924D02*
X9983158Y-15364400D01*
X9983158Y-15364400D02*
X10011729Y-15364400D01*
X10011729Y-15364400D02*
X10030777Y-15373924D01*
X10030777Y-15373924D02*
X10040301Y-15392972D01*
X10040301Y-15392972D02*
X10040301Y-15497734D01*
X10040301Y-15392972D02*
X10049825Y-15373924D01*
X10049825Y-15373924D02*
X10068872Y-15364400D01*
X10068872Y-15364400D02*
X10097444Y-15364400D01*
X10097444Y-15364400D02*
X10116491Y-15373924D01*
X10116491Y-15373924D02*
X10126015Y-15392972D01*
X10126015Y-15392972D02*
X10126015Y-15497734D01*
X10516491Y-15288210D02*
X10345063Y-15545353D01*
X10773634Y-15297734D02*
X10792682Y-15297734D01*
X10792682Y-15297734D02*
X10811729Y-15307258D01*
X10811729Y-15307258D02*
X10821253Y-15316781D01*
X10821253Y-15316781D02*
X10830777Y-15335829D01*
X10830777Y-15335829D02*
X10840301Y-15373924D01*
X10840301Y-15373924D02*
X10840301Y-15421543D01*
X10840301Y-15421543D02*
X10830777Y-15459638D01*
X10830777Y-15459638D02*
X10821253Y-15478686D01*
X10821253Y-15478686D02*
X10811729Y-15488210D01*
X10811729Y-15488210D02*
X10792682Y-15497734D01*
X10792682Y-15497734D02*
X10773634Y-15497734D01*
X10773634Y-15497734D02*
X10754587Y-15488210D01*
X10754587Y-15488210D02*
X10745063Y-15478686D01*
X10745063Y-15478686D02*
X10735539Y-15459638D01*
X10735539Y-15459638D02*
X10726015Y-15421543D01*
X10726015Y-15421543D02*
X10726015Y-15373924D01*
X10726015Y-15373924D02*
X10735539Y-15335829D01*
X10735539Y-15335829D02*
X10745063Y-15316781D01*
X10745063Y-15316781D02*
X10754587Y-15307258D01*
X10754587Y-15307258D02*
X10773634Y-15297734D01*
X10926015Y-15478686D02*
X10935539Y-15488210D01*
X10935539Y-15488210D02*
X10926015Y-15497734D01*
X10926015Y-15497734D02*
X10916491Y-15488210D01*
X10916491Y-15488210D02*
X10926015Y-15478686D01*
X10926015Y-15478686D02*
X10926015Y-15497734D01*
X11059348Y-15297734D02*
X11078396Y-15297734D01*
X11078396Y-15297734D02*
X11097444Y-15307258D01*
X11097444Y-15307258D02*
X11106968Y-15316781D01*
X11106968Y-15316781D02*
X11116491Y-15335829D01*
X11116491Y-15335829D02*
X11126015Y-15373924D01*
X11126015Y-15373924D02*
X11126015Y-15421543D01*
X11126015Y-15421543D02*
X11116491Y-15459638D01*
X11116491Y-15459638D02*
X11106968Y-15478686D01*
X11106968Y-15478686D02*
X11097444Y-15488210D01*
X11097444Y-15488210D02*
X11078396Y-15497734D01*
X11078396Y-15497734D02*
X11059348Y-15497734D01*
X11059348Y-15497734D02*
X11040301Y-15488210D01*
X11040301Y-15488210D02*
X11030777Y-15478686D01*
X11030777Y-15478686D02*
X11021253Y-15459638D01*
X11021253Y-15459638D02*
X11011729Y-15421543D01*
X11011729Y-15421543D02*
X11011729Y-15373924D01*
X11011729Y-15373924D02*
X11021253Y-15335829D01*
X11021253Y-15335829D02*
X11030777Y-15316781D01*
X11030777Y-15316781D02*
X11040301Y-15307258D01*
X11040301Y-15307258D02*
X11059348Y-15297734D01*
X11316491Y-15497734D02*
X11202206Y-15497734D01*
X11259348Y-15497734D02*
X11259348Y-15297734D01*
X11259348Y-15297734D02*
X11240301Y-15326305D01*
X11240301Y-15326305D02*
X11221253Y-15345353D01*
X11221253Y-15345353D02*
X11202206Y-15354877D01*
X11506967Y-15497734D02*
X11392682Y-15497734D01*
X11449825Y-15497734D02*
X11449825Y-15297734D01*
X11449825Y-15297734D02*
X11430777Y-15326305D01*
X11430777Y-15326305D02*
X11411729Y-15345353D01*
X11411729Y-15345353D02*
X11392682Y-15354877D01*
X11621253Y-15383448D02*
X11602206Y-15373924D01*
X11602206Y-15373924D02*
X11592682Y-15364400D01*
X11592682Y-15364400D02*
X11583158Y-15345353D01*
X11583158Y-15345353D02*
X11583158Y-15335829D01*
X11583158Y-15335829D02*
X11592682Y-15316781D01*
X11592682Y-15316781D02*
X11602206Y-15307258D01*
X11602206Y-15307258D02*
X11621253Y-15297734D01*
X11621253Y-15297734D02*
X11659348Y-15297734D01*
X11659348Y-15297734D02*
X11678396Y-15307258D01*
X11678396Y-15307258D02*
X11687920Y-15316781D01*
X11687920Y-15316781D02*
X11697444Y-15335829D01*
X11697444Y-15335829D02*
X11697444Y-15345353D01*
X11697444Y-15345353D02*
X11687920Y-15364400D01*
X11687920Y-15364400D02*
X11678396Y-15373924D01*
X11678396Y-15373924D02*
X11659348Y-15383448D01*
X11659348Y-15383448D02*
X11621253Y-15383448D01*
X11621253Y-15383448D02*
X11602206Y-15392972D01*
X11602206Y-15392972D02*
X11592682Y-15402496D01*
X11592682Y-15402496D02*
X11583158Y-15421543D01*
X11583158Y-15421543D02*
X11583158Y-15459638D01*
X11583158Y-15459638D02*
X11592682Y-15478686D01*
X11592682Y-15478686D02*
X11602206Y-15488210D01*
X11602206Y-15488210D02*
X11621253Y-15497734D01*
X11621253Y-15497734D02*
X11659348Y-15497734D01*
X11659348Y-15497734D02*
X11678396Y-15488210D01*
X11678396Y-15488210D02*
X11687920Y-15478686D01*
X11687920Y-15478686D02*
X11697444Y-15459638D01*
X11697444Y-15459638D02*
X11697444Y-15421543D01*
X11697444Y-15421543D02*
X11687920Y-15402496D01*
X11687920Y-15402496D02*
X11678396Y-15392972D01*
X11678396Y-15392972D02*
X11659348Y-15383448D01*
X11773634Y-15297734D02*
X11773634Y-15335829D01*
X11849825Y-15297734D02*
X11849825Y-15335829D01*
X12145063Y-15573924D02*
X12135539Y-15564400D01*
X12135539Y-15564400D02*
X12116491Y-15535829D01*
X12116491Y-15535829D02*
X12106968Y-15516781D01*
X12106968Y-15516781D02*
X12097444Y-15488210D01*
X12097444Y-15488210D02*
X12087920Y-15440591D01*
X12087920Y-15440591D02*
X12087920Y-15402496D01*
X12087920Y-15402496D02*
X12097444Y-15354877D01*
X12097444Y-15354877D02*
X12106968Y-15326305D01*
X12106968Y-15326305D02*
X12116491Y-15307258D01*
X12116491Y-15307258D02*
X12135539Y-15278686D01*
X12135539Y-15278686D02*
X12145063Y-15269162D01*
X12211729Y-15316781D02*
X12221253Y-15307258D01*
X12221253Y-15307258D02*
X12240301Y-15297734D01*
X12240301Y-15297734D02*
X12287920Y-15297734D01*
X12287920Y-15297734D02*
X12306968Y-15307258D01*
X12306968Y-15307258D02*
X12316491Y-15316781D01*
X12316491Y-15316781D02*
X12326015Y-15335829D01*
X12326015Y-15335829D02*
X12326015Y-15354877D01*
X12326015Y-15354877D02*
X12316491Y-15383448D01*
X12316491Y-15383448D02*
X12202206Y-15497734D01*
X12202206Y-15497734D02*
X12326015Y-15497734D01*
X12497444Y-15297734D02*
X12459348Y-15297734D01*
X12459348Y-15297734D02*
X12440301Y-15307258D01*
X12440301Y-15307258D02*
X12430777Y-15316781D01*
X12430777Y-15316781D02*
X12411729Y-15345353D01*
X12411729Y-15345353D02*
X12402206Y-15383448D01*
X12402206Y-15383448D02*
X12402206Y-15459638D01*
X12402206Y-15459638D02*
X12411729Y-15478686D01*
X12411729Y-15478686D02*
X12421253Y-15488210D01*
X12421253Y-15488210D02*
X12440301Y-15497734D01*
X12440301Y-15497734D02*
X12478396Y-15497734D01*
X12478396Y-15497734D02*
X12497444Y-15488210D01*
X12497444Y-15488210D02*
X12506968Y-15478686D01*
X12506968Y-15478686D02*
X12516491Y-15459638D01*
X12516491Y-15459638D02*
X12516491Y-15412019D01*
X12516491Y-15412019D02*
X12506968Y-15392972D01*
X12506968Y-15392972D02*
X12497444Y-15383448D01*
X12497444Y-15383448D02*
X12478396Y-15373924D01*
X12478396Y-15373924D02*
X12440301Y-15373924D01*
X12440301Y-15373924D02*
X12421253Y-15383448D01*
X12421253Y-15383448D02*
X12411729Y-15392972D01*
X12411729Y-15392972D02*
X12402206Y-15412019D01*
X12754587Y-15497734D02*
X12754587Y-15297734D01*
X12840301Y-15497734D02*
X12840301Y-15392972D01*
X12840301Y-15392972D02*
X12830777Y-15373924D01*
X12830777Y-15373924D02*
X12811730Y-15364400D01*
X12811730Y-15364400D02*
X12783158Y-15364400D01*
X12783158Y-15364400D02*
X12764110Y-15373924D01*
X12764110Y-15373924D02*
X12754587Y-15383448D01*
X12964110Y-15497734D02*
X12945063Y-15488210D01*
X12945063Y-15488210D02*
X12935539Y-15478686D01*
X12935539Y-15478686D02*
X12926015Y-15459638D01*
X12926015Y-15459638D02*
X12926015Y-15402496D01*
X12926015Y-15402496D02*
X12935539Y-15383448D01*
X12935539Y-15383448D02*
X12945063Y-15373924D01*
X12945063Y-15373924D02*
X12964110Y-15364400D01*
X12964110Y-15364400D02*
X12992682Y-15364400D01*
X12992682Y-15364400D02*
X13011730Y-15373924D01*
X13011730Y-15373924D02*
X13021253Y-15383448D01*
X13021253Y-15383448D02*
X13030777Y-15402496D01*
X13030777Y-15402496D02*
X13030777Y-15459638D01*
X13030777Y-15459638D02*
X13021253Y-15478686D01*
X13021253Y-15478686D02*
X13011730Y-15488210D01*
X13011730Y-15488210D02*
X12992682Y-15497734D01*
X12992682Y-15497734D02*
X12964110Y-15497734D01*
X13145063Y-15497734D02*
X13126015Y-15488210D01*
X13126015Y-15488210D02*
X13116491Y-15469162D01*
X13116491Y-15469162D02*
X13116491Y-15297734D01*
X13297444Y-15488210D02*
X13278396Y-15497734D01*
X13278396Y-15497734D02*
X13240301Y-15497734D01*
X13240301Y-15497734D02*
X13221253Y-15488210D01*
X13221253Y-15488210D02*
X13211730Y-15469162D01*
X13211730Y-15469162D02*
X13211730Y-15392972D01*
X13211730Y-15392972D02*
X13221253Y-15373924D01*
X13221253Y-15373924D02*
X13240301Y-15364400D01*
X13240301Y-15364400D02*
X13278396Y-15364400D01*
X13278396Y-15364400D02*
X13297444Y-15373924D01*
X13297444Y-15373924D02*
X13306968Y-15392972D01*
X13306968Y-15392972D02*
X13306968Y-15412019D01*
X13306968Y-15412019D02*
X13211730Y-15431067D01*
X13383158Y-15488210D02*
X13402206Y-15497734D01*
X13402206Y-15497734D02*
X13440301Y-15497734D01*
X13440301Y-15497734D02*
X13459349Y-15488210D01*
X13459349Y-15488210D02*
X13468872Y-15469162D01*
X13468872Y-15469162D02*
X13468872Y-15459638D01*
X13468872Y-15459638D02*
X13459349Y-15440591D01*
X13459349Y-15440591D02*
X13440301Y-15431067D01*
X13440301Y-15431067D02*
X13411730Y-15431067D01*
X13411730Y-15431067D02*
X13392682Y-15421543D01*
X13392682Y-15421543D02*
X13383158Y-15402496D01*
X13383158Y-15402496D02*
X13383158Y-15392972D01*
X13383158Y-15392972D02*
X13392682Y-15373924D01*
X13392682Y-15373924D02*
X13411730Y-15364400D01*
X13411730Y-15364400D02*
X13440301Y-15364400D01*
X13440301Y-15364400D02*
X13459349Y-15373924D01*
X13535539Y-15573924D02*
X13545063Y-15564400D01*
X13545063Y-15564400D02*
X13564111Y-15535829D01*
X13564111Y-15535829D02*
X13573634Y-15516781D01*
X13573634Y-15516781D02*
X13583158Y-15488210D01*
X13583158Y-15488210D02*
X13592682Y-15440591D01*
X13592682Y-15440591D02*
X13592682Y-15402496D01*
X13592682Y-15402496D02*
X13583158Y-15354877D01*
X13583158Y-15354877D02*
X13573634Y-15326305D01*
X13573634Y-15326305D02*
X13564111Y-15307258D01*
X13564111Y-15307258D02*
X13545063Y-15278686D01*
X13545063Y-15278686D02*
X13535539Y-15269162D01*
D12*
X8570000Y-15670250D02*
G75*
G02*
X8481100Y-15670250I-44450J0D01*
G01*
X8481100Y-15670250D02*
G75*
G02*
X8570000Y-15670250I44450J0D01*
G01*
D11*
X8868872Y-15561734D02*
X8887920Y-15561734D01*
X8887920Y-15561734D02*
X8906967Y-15571258D01*
X8906967Y-15571258D02*
X8916491Y-15580781D01*
X8916491Y-15580781D02*
X8926015Y-15599829D01*
X8926015Y-15599829D02*
X8935539Y-15637924D01*
X8935539Y-15637924D02*
X8935539Y-15685543D01*
X8935539Y-15685543D02*
X8926015Y-15723638D01*
X8926015Y-15723638D02*
X8916491Y-15742686D01*
X8916491Y-15742686D02*
X8906967Y-15752210D01*
X8906967Y-15752210D02*
X8887920Y-15761734D01*
X8887920Y-15761734D02*
X8868872Y-15761734D01*
X8868872Y-15761734D02*
X8849824Y-15752210D01*
X8849824Y-15752210D02*
X8840301Y-15742686D01*
X8840301Y-15742686D02*
X8830777Y-15723638D01*
X8830777Y-15723638D02*
X8821253Y-15685543D01*
X8821253Y-15685543D02*
X8821253Y-15637924D01*
X8821253Y-15637924D02*
X8830777Y-15599829D01*
X8830777Y-15599829D02*
X8840301Y-15580781D01*
X8840301Y-15580781D02*
X8849824Y-15571258D01*
X8849824Y-15571258D02*
X8868872Y-15561734D01*
X9021253Y-15742686D02*
X9030777Y-15752210D01*
X9030777Y-15752210D02*
X9021253Y-15761734D01*
X9021253Y-15761734D02*
X9011729Y-15752210D01*
X9011729Y-15752210D02*
X9021253Y-15742686D01*
X9021253Y-15742686D02*
X9021253Y-15761734D01*
X9145063Y-15647448D02*
X9126015Y-15637924D01*
X9126015Y-15637924D02*
X9116491Y-15628400D01*
X9116491Y-15628400D02*
X9106967Y-15609353D01*
X9106967Y-15609353D02*
X9106967Y-15599829D01*
X9106967Y-15599829D02*
X9116491Y-15580781D01*
X9116491Y-15580781D02*
X9126015Y-15571258D01*
X9126015Y-15571258D02*
X9145063Y-15561734D01*
X9145063Y-15561734D02*
X9183158Y-15561734D01*
X9183158Y-15561734D02*
X9202205Y-15571258D01*
X9202205Y-15571258D02*
X9211729Y-15580781D01*
X9211729Y-15580781D02*
X9221253Y-15599829D01*
X9221253Y-15599829D02*
X9221253Y-15609353D01*
X9221253Y-15609353D02*
X9211729Y-15628400D01*
X9211729Y-15628400D02*
X9202205Y-15637924D01*
X9202205Y-15637924D02*
X9183158Y-15647448D01*
X9183158Y-15647448D02*
X9145063Y-15647448D01*
X9145063Y-15647448D02*
X9126015Y-15656972D01*
X9126015Y-15656972D02*
X9116491Y-15666496D01*
X9116491Y-15666496D02*
X9106967Y-15685543D01*
X9106967Y-15685543D02*
X9106967Y-15723638D01*
X9106967Y-15723638D02*
X9116491Y-15742686D01*
X9116491Y-15742686D02*
X9126015Y-15752210D01*
X9126015Y-15752210D02*
X9145063Y-15761734D01*
X9145063Y-15761734D02*
X9183158Y-15761734D01*
X9183158Y-15761734D02*
X9202205Y-15752210D01*
X9202205Y-15752210D02*
X9211729Y-15742686D01*
X9211729Y-15742686D02*
X9221253Y-15723638D01*
X9221253Y-15723638D02*
X9221253Y-15685543D01*
X9221253Y-15685543D02*
X9211729Y-15666496D01*
X9211729Y-15666496D02*
X9202205Y-15656972D01*
X9202205Y-15656972D02*
X9183158Y-15647448D01*
X9335539Y-15647448D02*
X9316491Y-15637924D01*
X9316491Y-15637924D02*
X9306967Y-15628400D01*
X9306967Y-15628400D02*
X9297444Y-15609353D01*
X9297444Y-15609353D02*
X9297444Y-15599829D01*
X9297444Y-15599829D02*
X9306967Y-15580781D01*
X9306967Y-15580781D02*
X9316491Y-15571258D01*
X9316491Y-15571258D02*
X9335539Y-15561734D01*
X9335539Y-15561734D02*
X9373634Y-15561734D01*
X9373634Y-15561734D02*
X9392682Y-15571258D01*
X9392682Y-15571258D02*
X9402205Y-15580781D01*
X9402205Y-15580781D02*
X9411729Y-15599829D01*
X9411729Y-15599829D02*
X9411729Y-15609353D01*
X9411729Y-15609353D02*
X9402205Y-15628400D01*
X9402205Y-15628400D02*
X9392682Y-15637924D01*
X9392682Y-15637924D02*
X9373634Y-15647448D01*
X9373634Y-15647448D02*
X9335539Y-15647448D01*
X9335539Y-15647448D02*
X9316491Y-15656972D01*
X9316491Y-15656972D02*
X9306967Y-15666496D01*
X9306967Y-15666496D02*
X9297444Y-15685543D01*
X9297444Y-15685543D02*
X9297444Y-15723638D01*
X9297444Y-15723638D02*
X9306967Y-15742686D01*
X9306967Y-15742686D02*
X9316491Y-15752210D01*
X9316491Y-15752210D02*
X9335539Y-15761734D01*
X9335539Y-15761734D02*
X9373634Y-15761734D01*
X9373634Y-15761734D02*
X9392682Y-15752210D01*
X9392682Y-15752210D02*
X9402205Y-15742686D01*
X9402205Y-15742686D02*
X9411729Y-15723638D01*
X9411729Y-15723638D02*
X9411729Y-15685543D01*
X9411729Y-15685543D02*
X9402205Y-15666496D01*
X9402205Y-15666496D02*
X9392682Y-15656972D01*
X9392682Y-15656972D02*
X9373634Y-15647448D01*
X9506967Y-15761734D02*
X9545063Y-15761734D01*
X9545063Y-15761734D02*
X9564110Y-15752210D01*
X9564110Y-15752210D02*
X9573634Y-15742686D01*
X9573634Y-15742686D02*
X9592682Y-15714115D01*
X9592682Y-15714115D02*
X9602205Y-15676019D01*
X9602205Y-15676019D02*
X9602205Y-15599829D01*
X9602205Y-15599829D02*
X9592682Y-15580781D01*
X9592682Y-15580781D02*
X9583158Y-15571258D01*
X9583158Y-15571258D02*
X9564110Y-15561734D01*
X9564110Y-15561734D02*
X9526015Y-15561734D01*
X9526015Y-15561734D02*
X9506967Y-15571258D01*
X9506967Y-15571258D02*
X9497444Y-15580781D01*
X9497444Y-15580781D02*
X9487920Y-15599829D01*
X9487920Y-15599829D02*
X9487920Y-15647448D01*
X9487920Y-15647448D02*
X9497444Y-15666496D01*
X9497444Y-15666496D02*
X9506967Y-15676019D01*
X9506967Y-15676019D02*
X9526015Y-15685543D01*
X9526015Y-15685543D02*
X9564110Y-15685543D01*
X9564110Y-15685543D02*
X9583158Y-15676019D01*
X9583158Y-15676019D02*
X9592682Y-15666496D01*
X9592682Y-15666496D02*
X9602205Y-15647448D01*
X9687920Y-15761734D02*
X9687920Y-15628400D01*
X9687920Y-15647448D02*
X9697444Y-15637924D01*
X9697444Y-15637924D02*
X9716491Y-15628400D01*
X9716491Y-15628400D02*
X9745063Y-15628400D01*
X9745063Y-15628400D02*
X9764110Y-15637924D01*
X9764110Y-15637924D02*
X9773634Y-15656972D01*
X9773634Y-15656972D02*
X9773634Y-15761734D01*
X9773634Y-15656972D02*
X9783158Y-15637924D01*
X9783158Y-15637924D02*
X9802205Y-15628400D01*
X9802205Y-15628400D02*
X9830777Y-15628400D01*
X9830777Y-15628400D02*
X9849825Y-15637924D01*
X9849825Y-15637924D02*
X9859348Y-15656972D01*
X9859348Y-15656972D02*
X9859348Y-15761734D01*
X9954586Y-15761734D02*
X9954586Y-15628400D01*
X9954586Y-15647448D02*
X9964110Y-15637924D01*
X9964110Y-15637924D02*
X9983158Y-15628400D01*
X9983158Y-15628400D02*
X10011729Y-15628400D01*
X10011729Y-15628400D02*
X10030777Y-15637924D01*
X10030777Y-15637924D02*
X10040301Y-15656972D01*
X10040301Y-15656972D02*
X10040301Y-15761734D01*
X10040301Y-15656972D02*
X10049825Y-15637924D01*
X10049825Y-15637924D02*
X10068872Y-15628400D01*
X10068872Y-15628400D02*
X10097444Y-15628400D01*
X10097444Y-15628400D02*
X10116491Y-15637924D01*
X10116491Y-15637924D02*
X10126015Y-15656972D01*
X10126015Y-15656972D02*
X10126015Y-15761734D01*
X10516491Y-15552210D02*
X10345063Y-15809353D01*
X10773634Y-15561734D02*
X10792682Y-15561734D01*
X10792682Y-15561734D02*
X10811729Y-15571258D01*
X10811729Y-15571258D02*
X10821253Y-15580781D01*
X10821253Y-15580781D02*
X10830777Y-15599829D01*
X10830777Y-15599829D02*
X10840301Y-15637924D01*
X10840301Y-15637924D02*
X10840301Y-15685543D01*
X10840301Y-15685543D02*
X10830777Y-15723638D01*
X10830777Y-15723638D02*
X10821253Y-15742686D01*
X10821253Y-15742686D02*
X10811729Y-15752210D01*
X10811729Y-15752210D02*
X10792682Y-15761734D01*
X10792682Y-15761734D02*
X10773634Y-15761734D01*
X10773634Y-15761734D02*
X10754587Y-15752210D01*
X10754587Y-15752210D02*
X10745063Y-15742686D01*
X10745063Y-15742686D02*
X10735539Y-15723638D01*
X10735539Y-15723638D02*
X10726015Y-15685543D01*
X10726015Y-15685543D02*
X10726015Y-15637924D01*
X10726015Y-15637924D02*
X10735539Y-15599829D01*
X10735539Y-15599829D02*
X10745063Y-15580781D01*
X10745063Y-15580781D02*
X10754587Y-15571258D01*
X10754587Y-15571258D02*
X10773634Y-15561734D01*
X10926015Y-15742686D02*
X10935539Y-15752210D01*
X10935539Y-15752210D02*
X10926015Y-15761734D01*
X10926015Y-15761734D02*
X10916491Y-15752210D01*
X10916491Y-15752210D02*
X10926015Y-15742686D01*
X10926015Y-15742686D02*
X10926015Y-15761734D01*
X11059348Y-15561734D02*
X11078396Y-15561734D01*
X11078396Y-15561734D02*
X11097444Y-15571258D01*
X11097444Y-15571258D02*
X11106968Y-15580781D01*
X11106968Y-15580781D02*
X11116491Y-15599829D01*
X11116491Y-15599829D02*
X11126015Y-15637924D01*
X11126015Y-15637924D02*
X11126015Y-15685543D01*
X11126015Y-15685543D02*
X11116491Y-15723638D01*
X11116491Y-15723638D02*
X11106968Y-15742686D01*
X11106968Y-15742686D02*
X11097444Y-15752210D01*
X11097444Y-15752210D02*
X11078396Y-15761734D01*
X11078396Y-15761734D02*
X11059348Y-15761734D01*
X11059348Y-15761734D02*
X11040301Y-15752210D01*
X11040301Y-15752210D02*
X11030777Y-15742686D01*
X11030777Y-15742686D02*
X11021253Y-15723638D01*
X11021253Y-15723638D02*
X11011729Y-15685543D01*
X11011729Y-15685543D02*
X11011729Y-15637924D01*
X11011729Y-15637924D02*
X11021253Y-15599829D01*
X11021253Y-15599829D02*
X11030777Y-15580781D01*
X11030777Y-15580781D02*
X11040301Y-15571258D01*
X11040301Y-15571258D02*
X11059348Y-15561734D01*
X11192682Y-15561734D02*
X11316491Y-15561734D01*
X11316491Y-15561734D02*
X11249825Y-15637924D01*
X11249825Y-15637924D02*
X11278396Y-15637924D01*
X11278396Y-15637924D02*
X11297444Y-15647448D01*
X11297444Y-15647448D02*
X11306967Y-15656972D01*
X11306967Y-15656972D02*
X11316491Y-15676019D01*
X11316491Y-15676019D02*
X11316491Y-15723638D01*
X11316491Y-15723638D02*
X11306967Y-15742686D01*
X11306967Y-15742686D02*
X11297444Y-15752210D01*
X11297444Y-15752210D02*
X11278396Y-15761734D01*
X11278396Y-15761734D02*
X11221253Y-15761734D01*
X11221253Y-15761734D02*
X11202206Y-15752210D01*
X11202206Y-15752210D02*
X11192682Y-15742686D01*
X11497444Y-15561734D02*
X11402206Y-15561734D01*
X11402206Y-15561734D02*
X11392682Y-15656972D01*
X11392682Y-15656972D02*
X11402206Y-15647448D01*
X11402206Y-15647448D02*
X11421253Y-15637924D01*
X11421253Y-15637924D02*
X11468872Y-15637924D01*
X11468872Y-15637924D02*
X11487920Y-15647448D01*
X11487920Y-15647448D02*
X11497444Y-15656972D01*
X11497444Y-15656972D02*
X11506967Y-15676019D01*
X11506967Y-15676019D02*
X11506967Y-15723638D01*
X11506967Y-15723638D02*
X11497444Y-15742686D01*
X11497444Y-15742686D02*
X11487920Y-15752210D01*
X11487920Y-15752210D02*
X11468872Y-15761734D01*
X11468872Y-15761734D02*
X11421253Y-15761734D01*
X11421253Y-15761734D02*
X11402206Y-15752210D01*
X11402206Y-15752210D02*
X11392682Y-15742686D01*
X11630777Y-15561734D02*
X11649825Y-15561734D01*
X11649825Y-15561734D02*
X11668872Y-15571258D01*
X11668872Y-15571258D02*
X11678396Y-15580781D01*
X11678396Y-15580781D02*
X11687920Y-15599829D01*
X11687920Y-15599829D02*
X11697444Y-15637924D01*
X11697444Y-15637924D02*
X11697444Y-15685543D01*
X11697444Y-15685543D02*
X11687920Y-15723638D01*
X11687920Y-15723638D02*
X11678396Y-15742686D01*
X11678396Y-15742686D02*
X11668872Y-15752210D01*
X11668872Y-15752210D02*
X11649825Y-15761734D01*
X11649825Y-15761734D02*
X11630777Y-15761734D01*
X11630777Y-15761734D02*
X11611729Y-15752210D01*
X11611729Y-15752210D02*
X11602206Y-15742686D01*
X11602206Y-15742686D02*
X11592682Y-15723638D01*
X11592682Y-15723638D02*
X11583158Y-15685543D01*
X11583158Y-15685543D02*
X11583158Y-15637924D01*
X11583158Y-15637924D02*
X11592682Y-15599829D01*
X11592682Y-15599829D02*
X11602206Y-15580781D01*
X11602206Y-15580781D02*
X11611729Y-15571258D01*
X11611729Y-15571258D02*
X11630777Y-15561734D01*
X11773634Y-15561734D02*
X11773634Y-15599829D01*
X11849825Y-15561734D02*
X11849825Y-15599829D01*
X12145063Y-15837924D02*
X12135539Y-15828400D01*
X12135539Y-15828400D02*
X12116491Y-15799829D01*
X12116491Y-15799829D02*
X12106968Y-15780781D01*
X12106968Y-15780781D02*
X12097444Y-15752210D01*
X12097444Y-15752210D02*
X12087920Y-15704591D01*
X12087920Y-15704591D02*
X12087920Y-15666496D01*
X12087920Y-15666496D02*
X12097444Y-15618877D01*
X12097444Y-15618877D02*
X12106968Y-15590305D01*
X12106968Y-15590305D02*
X12116491Y-15571258D01*
X12116491Y-15571258D02*
X12135539Y-15542686D01*
X12135539Y-15542686D02*
X12145063Y-15533162D01*
X12326015Y-15761734D02*
X12211729Y-15761734D01*
X12268872Y-15761734D02*
X12268872Y-15561734D01*
X12268872Y-15561734D02*
X12249825Y-15590305D01*
X12249825Y-15590305D02*
X12230777Y-15609353D01*
X12230777Y-15609353D02*
X12211729Y-15618877D01*
X12497444Y-15628400D02*
X12497444Y-15761734D01*
X12449825Y-15552210D02*
X12402206Y-15695067D01*
X12402206Y-15695067D02*
X12526015Y-15695067D01*
X12754587Y-15761734D02*
X12754587Y-15561734D01*
X12840301Y-15761734D02*
X12840301Y-15656972D01*
X12840301Y-15656972D02*
X12830777Y-15637924D01*
X12830777Y-15637924D02*
X12811730Y-15628400D01*
X12811730Y-15628400D02*
X12783158Y-15628400D01*
X12783158Y-15628400D02*
X12764110Y-15637924D01*
X12764110Y-15637924D02*
X12754587Y-15647448D01*
X12964110Y-15761734D02*
X12945063Y-15752210D01*
X12945063Y-15752210D02*
X12935539Y-15742686D01*
X12935539Y-15742686D02*
X12926015Y-15723638D01*
X12926015Y-15723638D02*
X12926015Y-15666496D01*
X12926015Y-15666496D02*
X12935539Y-15647448D01*
X12935539Y-15647448D02*
X12945063Y-15637924D01*
X12945063Y-15637924D02*
X12964110Y-15628400D01*
X12964110Y-15628400D02*
X12992682Y-15628400D01*
X12992682Y-15628400D02*
X13011730Y-15637924D01*
X13011730Y-15637924D02*
X13021253Y-15647448D01*
X13021253Y-15647448D02*
X13030777Y-15666496D01*
X13030777Y-15666496D02*
X13030777Y-15723638D01*
X13030777Y-15723638D02*
X13021253Y-15742686D01*
X13021253Y-15742686D02*
X13011730Y-15752210D01*
X13011730Y-15752210D02*
X12992682Y-15761734D01*
X12992682Y-15761734D02*
X12964110Y-15761734D01*
X13145063Y-15761734D02*
X13126015Y-15752210D01*
X13126015Y-15752210D02*
X13116491Y-15733162D01*
X13116491Y-15733162D02*
X13116491Y-15561734D01*
X13297444Y-15752210D02*
X13278396Y-15761734D01*
X13278396Y-15761734D02*
X13240301Y-15761734D01*
X13240301Y-15761734D02*
X13221253Y-15752210D01*
X13221253Y-15752210D02*
X13211730Y-15733162D01*
X13211730Y-15733162D02*
X13211730Y-15656972D01*
X13211730Y-15656972D02*
X13221253Y-15637924D01*
X13221253Y-15637924D02*
X13240301Y-15628400D01*
X13240301Y-15628400D02*
X13278396Y-15628400D01*
X13278396Y-15628400D02*
X13297444Y-15637924D01*
X13297444Y-15637924D02*
X13306968Y-15656972D01*
X13306968Y-15656972D02*
X13306968Y-15676019D01*
X13306968Y-15676019D02*
X13211730Y-15695067D01*
X13383158Y-15752210D02*
X13402206Y-15761734D01*
X13402206Y-15761734D02*
X13440301Y-15761734D01*
X13440301Y-15761734D02*
X13459349Y-15752210D01*
X13459349Y-15752210D02*
X13468872Y-15733162D01*
X13468872Y-15733162D02*
X13468872Y-15723638D01*
X13468872Y-15723638D02*
X13459349Y-15704591D01*
X13459349Y-15704591D02*
X13440301Y-15695067D01*
X13440301Y-15695067D02*
X13411730Y-15695067D01*
X13411730Y-15695067D02*
X13392682Y-15685543D01*
X13392682Y-15685543D02*
X13383158Y-15666496D01*
X13383158Y-15666496D02*
X13383158Y-15656972D01*
X13383158Y-15656972D02*
X13392682Y-15637924D01*
X13392682Y-15637924D02*
X13411730Y-15628400D01*
X13411730Y-15628400D02*
X13440301Y-15628400D01*
X13440301Y-15628400D02*
X13459349Y-15637924D01*
X13535539Y-15837924D02*
X13545063Y-15828400D01*
X13545063Y-15828400D02*
X13564111Y-15799829D01*
X13564111Y-15799829D02*
X13573634Y-15780781D01*
X13573634Y-15780781D02*
X13583158Y-15752210D01*
X13583158Y-15752210D02*
X13592682Y-15704591D01*
X13592682Y-15704591D02*
X13592682Y-15666496D01*
X13592682Y-15666496D02*
X13583158Y-15618877D01*
X13583158Y-15618877D02*
X13573634Y-15590305D01*
X13573634Y-15590305D02*
X13564111Y-15571258D01*
X13564111Y-15571258D02*
X13545063Y-15542686D01*
X13545063Y-15542686D02*
X13535539Y-15533162D01*
D12*
X8520000Y-15884250D02*
X8520000Y-15984250D01*
X8470000Y-15934250D02*
X8570000Y-15934250D01*
D11*
X8935539Y-16025734D02*
X8821253Y-16025734D01*
X8878396Y-16025734D02*
X8878396Y-15825734D01*
X8878396Y-15825734D02*
X8859348Y-15854305D01*
X8859348Y-15854305D02*
X8840301Y-15873353D01*
X8840301Y-15873353D02*
X8821253Y-15882877D01*
X9021253Y-16006686D02*
X9030777Y-16016210D01*
X9030777Y-16016210D02*
X9021253Y-16025734D01*
X9021253Y-16025734D02*
X9011729Y-16016210D01*
X9011729Y-16016210D02*
X9021253Y-16006686D01*
X9021253Y-16006686D02*
X9021253Y-16025734D01*
X9154586Y-15825734D02*
X9173634Y-15825734D01*
X9173634Y-15825734D02*
X9192682Y-15835258D01*
X9192682Y-15835258D02*
X9202205Y-15844781D01*
X9202205Y-15844781D02*
X9211729Y-15863829D01*
X9211729Y-15863829D02*
X9221253Y-15901924D01*
X9221253Y-15901924D02*
X9221253Y-15949543D01*
X9221253Y-15949543D02*
X9211729Y-15987638D01*
X9211729Y-15987638D02*
X9202205Y-16006686D01*
X9202205Y-16006686D02*
X9192682Y-16016210D01*
X9192682Y-16016210D02*
X9173634Y-16025734D01*
X9173634Y-16025734D02*
X9154586Y-16025734D01*
X9154586Y-16025734D02*
X9135539Y-16016210D01*
X9135539Y-16016210D02*
X9126015Y-16006686D01*
X9126015Y-16006686D02*
X9116491Y-15987638D01*
X9116491Y-15987638D02*
X9106967Y-15949543D01*
X9106967Y-15949543D02*
X9106967Y-15901924D01*
X9106967Y-15901924D02*
X9116491Y-15863829D01*
X9116491Y-15863829D02*
X9126015Y-15844781D01*
X9126015Y-15844781D02*
X9135539Y-15835258D01*
X9135539Y-15835258D02*
X9154586Y-15825734D01*
X9345063Y-15825734D02*
X9364110Y-15825734D01*
X9364110Y-15825734D02*
X9383158Y-15835258D01*
X9383158Y-15835258D02*
X9392682Y-15844781D01*
X9392682Y-15844781D02*
X9402205Y-15863829D01*
X9402205Y-15863829D02*
X9411729Y-15901924D01*
X9411729Y-15901924D02*
X9411729Y-15949543D01*
X9411729Y-15949543D02*
X9402205Y-15987638D01*
X9402205Y-15987638D02*
X9392682Y-16006686D01*
X9392682Y-16006686D02*
X9383158Y-16016210D01*
X9383158Y-16016210D02*
X9364110Y-16025734D01*
X9364110Y-16025734D02*
X9345063Y-16025734D01*
X9345063Y-16025734D02*
X9326015Y-16016210D01*
X9326015Y-16016210D02*
X9316491Y-16006686D01*
X9316491Y-16006686D02*
X9306967Y-15987638D01*
X9306967Y-15987638D02*
X9297444Y-15949543D01*
X9297444Y-15949543D02*
X9297444Y-15901924D01*
X9297444Y-15901924D02*
X9306967Y-15863829D01*
X9306967Y-15863829D02*
X9316491Y-15844781D01*
X9316491Y-15844781D02*
X9326015Y-15835258D01*
X9326015Y-15835258D02*
X9345063Y-15825734D01*
X9535539Y-15825734D02*
X9554586Y-15825734D01*
X9554586Y-15825734D02*
X9573634Y-15835258D01*
X9573634Y-15835258D02*
X9583158Y-15844781D01*
X9583158Y-15844781D02*
X9592682Y-15863829D01*
X9592682Y-15863829D02*
X9602205Y-15901924D01*
X9602205Y-15901924D02*
X9602205Y-15949543D01*
X9602205Y-15949543D02*
X9592682Y-15987638D01*
X9592682Y-15987638D02*
X9583158Y-16006686D01*
X9583158Y-16006686D02*
X9573634Y-16016210D01*
X9573634Y-16016210D02*
X9554586Y-16025734D01*
X9554586Y-16025734D02*
X9535539Y-16025734D01*
X9535539Y-16025734D02*
X9516491Y-16016210D01*
X9516491Y-16016210D02*
X9506967Y-16006686D01*
X9506967Y-16006686D02*
X9497444Y-15987638D01*
X9497444Y-15987638D02*
X9487920Y-15949543D01*
X9487920Y-15949543D02*
X9487920Y-15901924D01*
X9487920Y-15901924D02*
X9497444Y-15863829D01*
X9497444Y-15863829D02*
X9506967Y-15844781D01*
X9506967Y-15844781D02*
X9516491Y-15835258D01*
X9516491Y-15835258D02*
X9535539Y-15825734D01*
X9687920Y-16025734D02*
X9687920Y-15892400D01*
X9687920Y-15911448D02*
X9697444Y-15901924D01*
X9697444Y-15901924D02*
X9716491Y-15892400D01*
X9716491Y-15892400D02*
X9745063Y-15892400D01*
X9745063Y-15892400D02*
X9764110Y-15901924D01*
X9764110Y-15901924D02*
X9773634Y-15920972D01*
X9773634Y-15920972D02*
X9773634Y-16025734D01*
X9773634Y-15920972D02*
X9783158Y-15901924D01*
X9783158Y-15901924D02*
X9802205Y-15892400D01*
X9802205Y-15892400D02*
X9830777Y-15892400D01*
X9830777Y-15892400D02*
X9849825Y-15901924D01*
X9849825Y-15901924D02*
X9859348Y-15920972D01*
X9859348Y-15920972D02*
X9859348Y-16025734D01*
X9954586Y-16025734D02*
X9954586Y-15892400D01*
X9954586Y-15911448D02*
X9964110Y-15901924D01*
X9964110Y-15901924D02*
X9983158Y-15892400D01*
X9983158Y-15892400D02*
X10011729Y-15892400D01*
X10011729Y-15892400D02*
X10030777Y-15901924D01*
X10030777Y-15901924D02*
X10040301Y-15920972D01*
X10040301Y-15920972D02*
X10040301Y-16025734D01*
X10040301Y-15920972D02*
X10049825Y-15901924D01*
X10049825Y-15901924D02*
X10068872Y-15892400D01*
X10068872Y-15892400D02*
X10097444Y-15892400D01*
X10097444Y-15892400D02*
X10116491Y-15901924D01*
X10116491Y-15901924D02*
X10126015Y-15920972D01*
X10126015Y-15920972D02*
X10126015Y-16025734D01*
X10516491Y-15816210D02*
X10345063Y-16073353D01*
X10773634Y-15825734D02*
X10792682Y-15825734D01*
X10792682Y-15825734D02*
X10811729Y-15835258D01*
X10811729Y-15835258D02*
X10821253Y-15844781D01*
X10821253Y-15844781D02*
X10830777Y-15863829D01*
X10830777Y-15863829D02*
X10840301Y-15901924D01*
X10840301Y-15901924D02*
X10840301Y-15949543D01*
X10840301Y-15949543D02*
X10830777Y-15987638D01*
X10830777Y-15987638D02*
X10821253Y-16006686D01*
X10821253Y-16006686D02*
X10811729Y-16016210D01*
X10811729Y-16016210D02*
X10792682Y-16025734D01*
X10792682Y-16025734D02*
X10773634Y-16025734D01*
X10773634Y-16025734D02*
X10754587Y-16016210D01*
X10754587Y-16016210D02*
X10745063Y-16006686D01*
X10745063Y-16006686D02*
X10735539Y-15987638D01*
X10735539Y-15987638D02*
X10726015Y-15949543D01*
X10726015Y-15949543D02*
X10726015Y-15901924D01*
X10726015Y-15901924D02*
X10735539Y-15863829D01*
X10735539Y-15863829D02*
X10745063Y-15844781D01*
X10745063Y-15844781D02*
X10754587Y-15835258D01*
X10754587Y-15835258D02*
X10773634Y-15825734D01*
X10926015Y-16006686D02*
X10935539Y-16016210D01*
X10935539Y-16016210D02*
X10926015Y-16025734D01*
X10926015Y-16025734D02*
X10916491Y-16016210D01*
X10916491Y-16016210D02*
X10926015Y-16006686D01*
X10926015Y-16006686D02*
X10926015Y-16025734D01*
X11059348Y-15825734D02*
X11078396Y-15825734D01*
X11078396Y-15825734D02*
X11097444Y-15835258D01*
X11097444Y-15835258D02*
X11106968Y-15844781D01*
X11106968Y-15844781D02*
X11116491Y-15863829D01*
X11116491Y-15863829D02*
X11126015Y-15901924D01*
X11126015Y-15901924D02*
X11126015Y-15949543D01*
X11126015Y-15949543D02*
X11116491Y-15987638D01*
X11116491Y-15987638D02*
X11106968Y-16006686D01*
X11106968Y-16006686D02*
X11097444Y-16016210D01*
X11097444Y-16016210D02*
X11078396Y-16025734D01*
X11078396Y-16025734D02*
X11059348Y-16025734D01*
X11059348Y-16025734D02*
X11040301Y-16016210D01*
X11040301Y-16016210D02*
X11030777Y-16006686D01*
X11030777Y-16006686D02*
X11021253Y-15987638D01*
X11021253Y-15987638D02*
X11011729Y-15949543D01*
X11011729Y-15949543D02*
X11011729Y-15901924D01*
X11011729Y-15901924D02*
X11021253Y-15863829D01*
X11021253Y-15863829D02*
X11030777Y-15844781D01*
X11030777Y-15844781D02*
X11040301Y-15835258D01*
X11040301Y-15835258D02*
X11059348Y-15825734D01*
X11192682Y-15825734D02*
X11316491Y-15825734D01*
X11316491Y-15825734D02*
X11249825Y-15901924D01*
X11249825Y-15901924D02*
X11278396Y-15901924D01*
X11278396Y-15901924D02*
X11297444Y-15911448D01*
X11297444Y-15911448D02*
X11306967Y-15920972D01*
X11306967Y-15920972D02*
X11316491Y-15940019D01*
X11316491Y-15940019D02*
X11316491Y-15987638D01*
X11316491Y-15987638D02*
X11306967Y-16006686D01*
X11306967Y-16006686D02*
X11297444Y-16016210D01*
X11297444Y-16016210D02*
X11278396Y-16025734D01*
X11278396Y-16025734D02*
X11221253Y-16025734D01*
X11221253Y-16025734D02*
X11202206Y-16016210D01*
X11202206Y-16016210D02*
X11192682Y-16006686D01*
X11411729Y-16025734D02*
X11449825Y-16025734D01*
X11449825Y-16025734D02*
X11468872Y-16016210D01*
X11468872Y-16016210D02*
X11478396Y-16006686D01*
X11478396Y-16006686D02*
X11497444Y-15978115D01*
X11497444Y-15978115D02*
X11506967Y-15940019D01*
X11506967Y-15940019D02*
X11506967Y-15863829D01*
X11506967Y-15863829D02*
X11497444Y-15844781D01*
X11497444Y-15844781D02*
X11487920Y-15835258D01*
X11487920Y-15835258D02*
X11468872Y-15825734D01*
X11468872Y-15825734D02*
X11430777Y-15825734D01*
X11430777Y-15825734D02*
X11411729Y-15835258D01*
X11411729Y-15835258D02*
X11402206Y-15844781D01*
X11402206Y-15844781D02*
X11392682Y-15863829D01*
X11392682Y-15863829D02*
X11392682Y-15911448D01*
X11392682Y-15911448D02*
X11402206Y-15930496D01*
X11402206Y-15930496D02*
X11411729Y-15940019D01*
X11411729Y-15940019D02*
X11430777Y-15949543D01*
X11430777Y-15949543D02*
X11468872Y-15949543D01*
X11468872Y-15949543D02*
X11487920Y-15940019D01*
X11487920Y-15940019D02*
X11497444Y-15930496D01*
X11497444Y-15930496D02*
X11506967Y-15911448D01*
X11678396Y-15892400D02*
X11678396Y-16025734D01*
X11630777Y-15816210D02*
X11583158Y-15959067D01*
X11583158Y-15959067D02*
X11706967Y-15959067D01*
X11773634Y-15825734D02*
X11773634Y-15863829D01*
X11849825Y-15825734D02*
X11849825Y-15863829D01*
X12145063Y-16101924D02*
X12135539Y-16092400D01*
X12135539Y-16092400D02*
X12116491Y-16063829D01*
X12116491Y-16063829D02*
X12106968Y-16044781D01*
X12106968Y-16044781D02*
X12097444Y-16016210D01*
X12097444Y-16016210D02*
X12087920Y-15968591D01*
X12087920Y-15968591D02*
X12087920Y-15930496D01*
X12087920Y-15930496D02*
X12097444Y-15882877D01*
X12097444Y-15882877D02*
X12106968Y-15854305D01*
X12106968Y-15854305D02*
X12116491Y-15835258D01*
X12116491Y-15835258D02*
X12135539Y-15806686D01*
X12135539Y-15806686D02*
X12145063Y-15797162D01*
X12230777Y-16025734D02*
X12268872Y-16025734D01*
X12268872Y-16025734D02*
X12287920Y-16016210D01*
X12287920Y-16016210D02*
X12297444Y-16006686D01*
X12297444Y-16006686D02*
X12316491Y-15978115D01*
X12316491Y-15978115D02*
X12326015Y-15940019D01*
X12326015Y-15940019D02*
X12326015Y-15863829D01*
X12326015Y-15863829D02*
X12316491Y-15844781D01*
X12316491Y-15844781D02*
X12306968Y-15835258D01*
X12306968Y-15835258D02*
X12287920Y-15825734D01*
X12287920Y-15825734D02*
X12249825Y-15825734D01*
X12249825Y-15825734D02*
X12230777Y-15835258D01*
X12230777Y-15835258D02*
X12221253Y-15844781D01*
X12221253Y-15844781D02*
X12211729Y-15863829D01*
X12211729Y-15863829D02*
X12211729Y-15911448D01*
X12211729Y-15911448D02*
X12221253Y-15930496D01*
X12221253Y-15930496D02*
X12230777Y-15940019D01*
X12230777Y-15940019D02*
X12249825Y-15949543D01*
X12249825Y-15949543D02*
X12287920Y-15949543D01*
X12287920Y-15949543D02*
X12306968Y-15940019D01*
X12306968Y-15940019D02*
X12316491Y-15930496D01*
X12316491Y-15930496D02*
X12326015Y-15911448D01*
X12564110Y-16025734D02*
X12564110Y-15825734D01*
X12649825Y-16025734D02*
X12649825Y-15920972D01*
X12649825Y-15920972D02*
X12640301Y-15901924D01*
X12640301Y-15901924D02*
X12621253Y-15892400D01*
X12621253Y-15892400D02*
X12592682Y-15892400D01*
X12592682Y-15892400D02*
X12573634Y-15901924D01*
X12573634Y-15901924D02*
X12564110Y-15911448D01*
X12773634Y-16025734D02*
X12754587Y-16016210D01*
X12754587Y-16016210D02*
X12745063Y-16006686D01*
X12745063Y-16006686D02*
X12735539Y-15987638D01*
X12735539Y-15987638D02*
X12735539Y-15930496D01*
X12735539Y-15930496D02*
X12745063Y-15911448D01*
X12745063Y-15911448D02*
X12754587Y-15901924D01*
X12754587Y-15901924D02*
X12773634Y-15892400D01*
X12773634Y-15892400D02*
X12802206Y-15892400D01*
X12802206Y-15892400D02*
X12821253Y-15901924D01*
X12821253Y-15901924D02*
X12830777Y-15911448D01*
X12830777Y-15911448D02*
X12840301Y-15930496D01*
X12840301Y-15930496D02*
X12840301Y-15987638D01*
X12840301Y-15987638D02*
X12830777Y-16006686D01*
X12830777Y-16006686D02*
X12821253Y-16016210D01*
X12821253Y-16016210D02*
X12802206Y-16025734D01*
X12802206Y-16025734D02*
X12773634Y-16025734D01*
X12954587Y-16025734D02*
X12935539Y-16016210D01*
X12935539Y-16016210D02*
X12926015Y-15997162D01*
X12926015Y-15997162D02*
X12926015Y-15825734D01*
X13106968Y-16016210D02*
X13087920Y-16025734D01*
X13087920Y-16025734D02*
X13049825Y-16025734D01*
X13049825Y-16025734D02*
X13030777Y-16016210D01*
X13030777Y-16016210D02*
X13021253Y-15997162D01*
X13021253Y-15997162D02*
X13021253Y-15920972D01*
X13021253Y-15920972D02*
X13030777Y-15901924D01*
X13030777Y-15901924D02*
X13049825Y-15892400D01*
X13049825Y-15892400D02*
X13087920Y-15892400D01*
X13087920Y-15892400D02*
X13106968Y-15901924D01*
X13106968Y-15901924D02*
X13116491Y-15920972D01*
X13116491Y-15920972D02*
X13116491Y-15940019D01*
X13116491Y-15940019D02*
X13021253Y-15959067D01*
X13192682Y-16016210D02*
X13211730Y-16025734D01*
X13211730Y-16025734D02*
X13249825Y-16025734D01*
X13249825Y-16025734D02*
X13268872Y-16016210D01*
X13268872Y-16016210D02*
X13278396Y-15997162D01*
X13278396Y-15997162D02*
X13278396Y-15987638D01*
X13278396Y-15987638D02*
X13268872Y-15968591D01*
X13268872Y-15968591D02*
X13249825Y-15959067D01*
X13249825Y-15959067D02*
X13221253Y-15959067D01*
X13221253Y-15959067D02*
X13202206Y-15949543D01*
X13202206Y-15949543D02*
X13192682Y-15930496D01*
X13192682Y-15930496D02*
X13192682Y-15920972D01*
X13192682Y-15920972D02*
X13202206Y-15901924D01*
X13202206Y-15901924D02*
X13221253Y-15892400D01*
X13221253Y-15892400D02*
X13249825Y-15892400D01*
X13249825Y-15892400D02*
X13268872Y-15901924D01*
X13345063Y-16101924D02*
X13354587Y-16092400D01*
X13354587Y-16092400D02*
X13373634Y-16063829D01*
X13373634Y-16063829D02*
X13383158Y-16044781D01*
X13383158Y-16044781D02*
X13392682Y-16016210D01*
X13392682Y-16016210D02*
X13402206Y-15968591D01*
X13402206Y-15968591D02*
X13402206Y-15930496D01*
X13402206Y-15930496D02*
X13392682Y-15882877D01*
X13392682Y-15882877D02*
X13383158Y-15854305D01*
X13383158Y-15854305D02*
X13373634Y-15835258D01*
X13373634Y-15835258D02*
X13354587Y-15806686D01*
X13354587Y-15806686D02*
X13345063Y-15797162D01*
D13*
X8548034Y-16251283D02*
X8548034Y-16145216D01*
X8441967Y-16145216D01*
X8441967Y-16251283D01*
X8548034Y-16251283D01*
D11*
X8935539Y-16289734D02*
X8821253Y-16289734D01*
X8878396Y-16289734D02*
X8878396Y-16089734D01*
X8878396Y-16089734D02*
X8859348Y-16118305D01*
X8859348Y-16118305D02*
X8840301Y-16137353D01*
X8840301Y-16137353D02*
X8821253Y-16146877D01*
X9021253Y-16270686D02*
X9030777Y-16280210D01*
X9030777Y-16280210D02*
X9021253Y-16289734D01*
X9021253Y-16289734D02*
X9011729Y-16280210D01*
X9011729Y-16280210D02*
X9021253Y-16270686D01*
X9021253Y-16270686D02*
X9021253Y-16289734D01*
X9211729Y-16089734D02*
X9116491Y-16089734D01*
X9116491Y-16089734D02*
X9106967Y-16184972D01*
X9106967Y-16184972D02*
X9116491Y-16175448D01*
X9116491Y-16175448D02*
X9135539Y-16165924D01*
X9135539Y-16165924D02*
X9183158Y-16165924D01*
X9183158Y-16165924D02*
X9202205Y-16175448D01*
X9202205Y-16175448D02*
X9211729Y-16184972D01*
X9211729Y-16184972D02*
X9221253Y-16204019D01*
X9221253Y-16204019D02*
X9221253Y-16251638D01*
X9221253Y-16251638D02*
X9211729Y-16270686D01*
X9211729Y-16270686D02*
X9202205Y-16280210D01*
X9202205Y-16280210D02*
X9183158Y-16289734D01*
X9183158Y-16289734D02*
X9135539Y-16289734D01*
X9135539Y-16289734D02*
X9116491Y-16280210D01*
X9116491Y-16280210D02*
X9106967Y-16270686D01*
X9345063Y-16089734D02*
X9364110Y-16089734D01*
X9364110Y-16089734D02*
X9383158Y-16099258D01*
X9383158Y-16099258D02*
X9392682Y-16108781D01*
X9392682Y-16108781D02*
X9402205Y-16127829D01*
X9402205Y-16127829D02*
X9411729Y-16165924D01*
X9411729Y-16165924D02*
X9411729Y-16213543D01*
X9411729Y-16213543D02*
X9402205Y-16251638D01*
X9402205Y-16251638D02*
X9392682Y-16270686D01*
X9392682Y-16270686D02*
X9383158Y-16280210D01*
X9383158Y-16280210D02*
X9364110Y-16289734D01*
X9364110Y-16289734D02*
X9345063Y-16289734D01*
X9345063Y-16289734D02*
X9326015Y-16280210D01*
X9326015Y-16280210D02*
X9316491Y-16270686D01*
X9316491Y-16270686D02*
X9306967Y-16251638D01*
X9306967Y-16251638D02*
X9297444Y-16213543D01*
X9297444Y-16213543D02*
X9297444Y-16165924D01*
X9297444Y-16165924D02*
X9306967Y-16127829D01*
X9306967Y-16127829D02*
X9316491Y-16108781D01*
X9316491Y-16108781D02*
X9326015Y-16099258D01*
X9326015Y-16099258D02*
X9345063Y-16089734D01*
X9535539Y-16089734D02*
X9554586Y-16089734D01*
X9554586Y-16089734D02*
X9573634Y-16099258D01*
X9573634Y-16099258D02*
X9583158Y-16108781D01*
X9583158Y-16108781D02*
X9592682Y-16127829D01*
X9592682Y-16127829D02*
X9602205Y-16165924D01*
X9602205Y-16165924D02*
X9602205Y-16213543D01*
X9602205Y-16213543D02*
X9592682Y-16251638D01*
X9592682Y-16251638D02*
X9583158Y-16270686D01*
X9583158Y-16270686D02*
X9573634Y-16280210D01*
X9573634Y-16280210D02*
X9554586Y-16289734D01*
X9554586Y-16289734D02*
X9535539Y-16289734D01*
X9535539Y-16289734D02*
X9516491Y-16280210D01*
X9516491Y-16280210D02*
X9506967Y-16270686D01*
X9506967Y-16270686D02*
X9497444Y-16251638D01*
X9497444Y-16251638D02*
X9487920Y-16213543D01*
X9487920Y-16213543D02*
X9487920Y-16165924D01*
X9487920Y-16165924D02*
X9497444Y-16127829D01*
X9497444Y-16127829D02*
X9506967Y-16108781D01*
X9506967Y-16108781D02*
X9516491Y-16099258D01*
X9516491Y-16099258D02*
X9535539Y-16089734D01*
X9687920Y-16289734D02*
X9687920Y-16156400D01*
X9687920Y-16175448D02*
X9697444Y-16165924D01*
X9697444Y-16165924D02*
X9716491Y-16156400D01*
X9716491Y-16156400D02*
X9745063Y-16156400D01*
X9745063Y-16156400D02*
X9764110Y-16165924D01*
X9764110Y-16165924D02*
X9773634Y-16184972D01*
X9773634Y-16184972D02*
X9773634Y-16289734D01*
X9773634Y-16184972D02*
X9783158Y-16165924D01*
X9783158Y-16165924D02*
X9802205Y-16156400D01*
X9802205Y-16156400D02*
X9830777Y-16156400D01*
X9830777Y-16156400D02*
X9849825Y-16165924D01*
X9849825Y-16165924D02*
X9859348Y-16184972D01*
X9859348Y-16184972D02*
X9859348Y-16289734D01*
X9954586Y-16289734D02*
X9954586Y-16156400D01*
X9954586Y-16175448D02*
X9964110Y-16165924D01*
X9964110Y-16165924D02*
X9983158Y-16156400D01*
X9983158Y-16156400D02*
X10011729Y-16156400D01*
X10011729Y-16156400D02*
X10030777Y-16165924D01*
X10030777Y-16165924D02*
X10040301Y-16184972D01*
X10040301Y-16184972D02*
X10040301Y-16289734D01*
X10040301Y-16184972D02*
X10049825Y-16165924D01*
X10049825Y-16165924D02*
X10068872Y-16156400D01*
X10068872Y-16156400D02*
X10097444Y-16156400D01*
X10097444Y-16156400D02*
X10116491Y-16165924D01*
X10116491Y-16165924D02*
X10126015Y-16184972D01*
X10126015Y-16184972D02*
X10126015Y-16289734D01*
X10516491Y-16080210D02*
X10345063Y-16337353D01*
X10773634Y-16089734D02*
X10792682Y-16089734D01*
X10792682Y-16089734D02*
X10811729Y-16099258D01*
X10811729Y-16099258D02*
X10821253Y-16108781D01*
X10821253Y-16108781D02*
X10830777Y-16127829D01*
X10830777Y-16127829D02*
X10840301Y-16165924D01*
X10840301Y-16165924D02*
X10840301Y-16213543D01*
X10840301Y-16213543D02*
X10830777Y-16251638D01*
X10830777Y-16251638D02*
X10821253Y-16270686D01*
X10821253Y-16270686D02*
X10811729Y-16280210D01*
X10811729Y-16280210D02*
X10792682Y-16289734D01*
X10792682Y-16289734D02*
X10773634Y-16289734D01*
X10773634Y-16289734D02*
X10754587Y-16280210D01*
X10754587Y-16280210D02*
X10745063Y-16270686D01*
X10745063Y-16270686D02*
X10735539Y-16251638D01*
X10735539Y-16251638D02*
X10726015Y-16213543D01*
X10726015Y-16213543D02*
X10726015Y-16165924D01*
X10726015Y-16165924D02*
X10735539Y-16127829D01*
X10735539Y-16127829D02*
X10745063Y-16108781D01*
X10745063Y-16108781D02*
X10754587Y-16099258D01*
X10754587Y-16099258D02*
X10773634Y-16089734D01*
X10926015Y-16270686D02*
X10935539Y-16280210D01*
X10935539Y-16280210D02*
X10926015Y-16289734D01*
X10926015Y-16289734D02*
X10916491Y-16280210D01*
X10916491Y-16280210D02*
X10926015Y-16270686D01*
X10926015Y-16270686D02*
X10926015Y-16289734D01*
X11059348Y-16089734D02*
X11078396Y-16089734D01*
X11078396Y-16089734D02*
X11097444Y-16099258D01*
X11097444Y-16099258D02*
X11106968Y-16108781D01*
X11106968Y-16108781D02*
X11116491Y-16127829D01*
X11116491Y-16127829D02*
X11126015Y-16165924D01*
X11126015Y-16165924D02*
X11126015Y-16213543D01*
X11126015Y-16213543D02*
X11116491Y-16251638D01*
X11116491Y-16251638D02*
X11106968Y-16270686D01*
X11106968Y-16270686D02*
X11097444Y-16280210D01*
X11097444Y-16280210D02*
X11078396Y-16289734D01*
X11078396Y-16289734D02*
X11059348Y-16289734D01*
X11059348Y-16289734D02*
X11040301Y-16280210D01*
X11040301Y-16280210D02*
X11030777Y-16270686D01*
X11030777Y-16270686D02*
X11021253Y-16251638D01*
X11021253Y-16251638D02*
X11011729Y-16213543D01*
X11011729Y-16213543D02*
X11011729Y-16165924D01*
X11011729Y-16165924D02*
X11021253Y-16127829D01*
X11021253Y-16127829D02*
X11030777Y-16108781D01*
X11030777Y-16108781D02*
X11040301Y-16099258D01*
X11040301Y-16099258D02*
X11059348Y-16089734D01*
X11306967Y-16089734D02*
X11211729Y-16089734D01*
X11211729Y-16089734D02*
X11202206Y-16184972D01*
X11202206Y-16184972D02*
X11211729Y-16175448D01*
X11211729Y-16175448D02*
X11230777Y-16165924D01*
X11230777Y-16165924D02*
X11278396Y-16165924D01*
X11278396Y-16165924D02*
X11297444Y-16175448D01*
X11297444Y-16175448D02*
X11306967Y-16184972D01*
X11306967Y-16184972D02*
X11316491Y-16204019D01*
X11316491Y-16204019D02*
X11316491Y-16251638D01*
X11316491Y-16251638D02*
X11306967Y-16270686D01*
X11306967Y-16270686D02*
X11297444Y-16280210D01*
X11297444Y-16280210D02*
X11278396Y-16289734D01*
X11278396Y-16289734D02*
X11230777Y-16289734D01*
X11230777Y-16289734D02*
X11211729Y-16280210D01*
X11211729Y-16280210D02*
X11202206Y-16270686D01*
X11411729Y-16289734D02*
X11449825Y-16289734D01*
X11449825Y-16289734D02*
X11468872Y-16280210D01*
X11468872Y-16280210D02*
X11478396Y-16270686D01*
X11478396Y-16270686D02*
X11497444Y-16242115D01*
X11497444Y-16242115D02*
X11506967Y-16204019D01*
X11506967Y-16204019D02*
X11506967Y-16127829D01*
X11506967Y-16127829D02*
X11497444Y-16108781D01*
X11497444Y-16108781D02*
X11487920Y-16099258D01*
X11487920Y-16099258D02*
X11468872Y-16089734D01*
X11468872Y-16089734D02*
X11430777Y-16089734D01*
X11430777Y-16089734D02*
X11411729Y-16099258D01*
X11411729Y-16099258D02*
X11402206Y-16108781D01*
X11402206Y-16108781D02*
X11392682Y-16127829D01*
X11392682Y-16127829D02*
X11392682Y-16175448D01*
X11392682Y-16175448D02*
X11402206Y-16194496D01*
X11402206Y-16194496D02*
X11411729Y-16204019D01*
X11411729Y-16204019D02*
X11430777Y-16213543D01*
X11430777Y-16213543D02*
X11468872Y-16213543D01*
X11468872Y-16213543D02*
X11487920Y-16204019D01*
X11487920Y-16204019D02*
X11497444Y-16194496D01*
X11497444Y-16194496D02*
X11506967Y-16175448D01*
X11697444Y-16289734D02*
X11583158Y-16289734D01*
X11640301Y-16289734D02*
X11640301Y-16089734D01*
X11640301Y-16089734D02*
X11621253Y-16118305D01*
X11621253Y-16118305D02*
X11602206Y-16137353D01*
X11602206Y-16137353D02*
X11583158Y-16146877D01*
X11773634Y-16089734D02*
X11773634Y-16127829D01*
X11849825Y-16089734D02*
X11849825Y-16127829D01*
X12145063Y-16365924D02*
X12135539Y-16356400D01*
X12135539Y-16356400D02*
X12116491Y-16327829D01*
X12116491Y-16327829D02*
X12106968Y-16308781D01*
X12106968Y-16308781D02*
X12097444Y-16280210D01*
X12097444Y-16280210D02*
X12087920Y-16232591D01*
X12087920Y-16232591D02*
X12087920Y-16194496D01*
X12087920Y-16194496D02*
X12097444Y-16146877D01*
X12097444Y-16146877D02*
X12106968Y-16118305D01*
X12106968Y-16118305D02*
X12116491Y-16099258D01*
X12116491Y-16099258D02*
X12135539Y-16070686D01*
X12135539Y-16070686D02*
X12145063Y-16061162D01*
X12249825Y-16175448D02*
X12230777Y-16165924D01*
X12230777Y-16165924D02*
X12221253Y-16156400D01*
X12221253Y-16156400D02*
X12211729Y-16137353D01*
X12211729Y-16137353D02*
X12211729Y-16127829D01*
X12211729Y-16127829D02*
X12221253Y-16108781D01*
X12221253Y-16108781D02*
X12230777Y-16099258D01*
X12230777Y-16099258D02*
X12249825Y-16089734D01*
X12249825Y-16089734D02*
X12287920Y-16089734D01*
X12287920Y-16089734D02*
X12306968Y-16099258D01*
X12306968Y-16099258D02*
X12316491Y-16108781D01*
X12316491Y-16108781D02*
X12326015Y-16127829D01*
X12326015Y-16127829D02*
X12326015Y-16137353D01*
X12326015Y-16137353D02*
X12316491Y-16156400D01*
X12316491Y-16156400D02*
X12306968Y-16165924D01*
X12306968Y-16165924D02*
X12287920Y-16175448D01*
X12287920Y-16175448D02*
X12249825Y-16175448D01*
X12249825Y-16175448D02*
X12230777Y-16184972D01*
X12230777Y-16184972D02*
X12221253Y-16194496D01*
X12221253Y-16194496D02*
X12211729Y-16213543D01*
X12211729Y-16213543D02*
X12211729Y-16251638D01*
X12211729Y-16251638D02*
X12221253Y-16270686D01*
X12221253Y-16270686D02*
X12230777Y-16280210D01*
X12230777Y-16280210D02*
X12249825Y-16289734D01*
X12249825Y-16289734D02*
X12287920Y-16289734D01*
X12287920Y-16289734D02*
X12306968Y-16280210D01*
X12306968Y-16280210D02*
X12316491Y-16270686D01*
X12316491Y-16270686D02*
X12326015Y-16251638D01*
X12326015Y-16251638D02*
X12326015Y-16213543D01*
X12326015Y-16213543D02*
X12316491Y-16194496D01*
X12316491Y-16194496D02*
X12306968Y-16184972D01*
X12306968Y-16184972D02*
X12287920Y-16175448D01*
X12564110Y-16289734D02*
X12564110Y-16089734D01*
X12649825Y-16289734D02*
X12649825Y-16184972D01*
X12649825Y-16184972D02*
X12640301Y-16165924D01*
X12640301Y-16165924D02*
X12621253Y-16156400D01*
X12621253Y-16156400D02*
X12592682Y-16156400D01*
X12592682Y-16156400D02*
X12573634Y-16165924D01*
X12573634Y-16165924D02*
X12564110Y-16175448D01*
X12773634Y-16289734D02*
X12754587Y-16280210D01*
X12754587Y-16280210D02*
X12745063Y-16270686D01*
X12745063Y-16270686D02*
X12735539Y-16251638D01*
X12735539Y-16251638D02*
X12735539Y-16194496D01*
X12735539Y-16194496D02*
X12745063Y-16175448D01*
X12745063Y-16175448D02*
X12754587Y-16165924D01*
X12754587Y-16165924D02*
X12773634Y-16156400D01*
X12773634Y-16156400D02*
X12802206Y-16156400D01*
X12802206Y-16156400D02*
X12821253Y-16165924D01*
X12821253Y-16165924D02*
X12830777Y-16175448D01*
X12830777Y-16175448D02*
X12840301Y-16194496D01*
X12840301Y-16194496D02*
X12840301Y-16251638D01*
X12840301Y-16251638D02*
X12830777Y-16270686D01*
X12830777Y-16270686D02*
X12821253Y-16280210D01*
X12821253Y-16280210D02*
X12802206Y-16289734D01*
X12802206Y-16289734D02*
X12773634Y-16289734D01*
X12954587Y-16289734D02*
X12935539Y-16280210D01*
X12935539Y-16280210D02*
X12926015Y-16261162D01*
X12926015Y-16261162D02*
X12926015Y-16089734D01*
X13106968Y-16280210D02*
X13087920Y-16289734D01*
X13087920Y-16289734D02*
X13049825Y-16289734D01*
X13049825Y-16289734D02*
X13030777Y-16280210D01*
X13030777Y-16280210D02*
X13021253Y-16261162D01*
X13021253Y-16261162D02*
X13021253Y-16184972D01*
X13021253Y-16184972D02*
X13030777Y-16165924D01*
X13030777Y-16165924D02*
X13049825Y-16156400D01*
X13049825Y-16156400D02*
X13087920Y-16156400D01*
X13087920Y-16156400D02*
X13106968Y-16165924D01*
X13106968Y-16165924D02*
X13116491Y-16184972D01*
X13116491Y-16184972D02*
X13116491Y-16204019D01*
X13116491Y-16204019D02*
X13021253Y-16223067D01*
X13192682Y-16280210D02*
X13211730Y-16289734D01*
X13211730Y-16289734D02*
X13249825Y-16289734D01*
X13249825Y-16289734D02*
X13268872Y-16280210D01*
X13268872Y-16280210D02*
X13278396Y-16261162D01*
X13278396Y-16261162D02*
X13278396Y-16251638D01*
X13278396Y-16251638D02*
X13268872Y-16232591D01*
X13268872Y-16232591D02*
X13249825Y-16223067D01*
X13249825Y-16223067D02*
X13221253Y-16223067D01*
X13221253Y-16223067D02*
X13202206Y-16213543D01*
X13202206Y-16213543D02*
X13192682Y-16194496D01*
X13192682Y-16194496D02*
X13192682Y-16184972D01*
X13192682Y-16184972D02*
X13202206Y-16165924D01*
X13202206Y-16165924D02*
X13221253Y-16156400D01*
X13221253Y-16156400D02*
X13249825Y-16156400D01*
X13249825Y-16156400D02*
X13268872Y-16165924D01*
X13516492Y-16213543D02*
X13668873Y-16213543D01*
X13592682Y-16289734D02*
X13592682Y-16137353D01*
X13906968Y-16108781D02*
X13916492Y-16099258D01*
X13916492Y-16099258D02*
X13935539Y-16089734D01*
X13935539Y-16089734D02*
X13983158Y-16089734D01*
X13983158Y-16089734D02*
X14002206Y-16099258D01*
X14002206Y-16099258D02*
X14011730Y-16108781D01*
X14011730Y-16108781D02*
X14021253Y-16127829D01*
X14021253Y-16127829D02*
X14021253Y-16146877D01*
X14021253Y-16146877D02*
X14011730Y-16175448D01*
X14011730Y-16175448D02*
X13897444Y-16289734D01*
X13897444Y-16289734D02*
X14021253Y-16289734D01*
X14249825Y-16280210D02*
X14268873Y-16289734D01*
X14268873Y-16289734D02*
X14306968Y-16289734D01*
X14306968Y-16289734D02*
X14326015Y-16280210D01*
X14326015Y-16280210D02*
X14335539Y-16261162D01*
X14335539Y-16261162D02*
X14335539Y-16251638D01*
X14335539Y-16251638D02*
X14326015Y-16232591D01*
X14326015Y-16232591D02*
X14306968Y-16223067D01*
X14306968Y-16223067D02*
X14278396Y-16223067D01*
X14278396Y-16223067D02*
X14259349Y-16213543D01*
X14259349Y-16213543D02*
X14249825Y-16194496D01*
X14249825Y-16194496D02*
X14249825Y-16184972D01*
X14249825Y-16184972D02*
X14259349Y-16165924D01*
X14259349Y-16165924D02*
X14278396Y-16156400D01*
X14278396Y-16156400D02*
X14306968Y-16156400D01*
X14306968Y-16156400D02*
X14326015Y-16165924D01*
X14449825Y-16289734D02*
X14430777Y-16280210D01*
X14430777Y-16280210D02*
X14421254Y-16261162D01*
X14421254Y-16261162D02*
X14421254Y-16089734D01*
X14554587Y-16289734D02*
X14535539Y-16280210D01*
X14535539Y-16280210D02*
X14526015Y-16270686D01*
X14526015Y-16270686D02*
X14516492Y-16251638D01*
X14516492Y-16251638D02*
X14516492Y-16194496D01*
X14516492Y-16194496D02*
X14526015Y-16175448D01*
X14526015Y-16175448D02*
X14535539Y-16165924D01*
X14535539Y-16165924D02*
X14554587Y-16156400D01*
X14554587Y-16156400D02*
X14583158Y-16156400D01*
X14583158Y-16156400D02*
X14602206Y-16165924D01*
X14602206Y-16165924D02*
X14611730Y-16175448D01*
X14611730Y-16175448D02*
X14621254Y-16194496D01*
X14621254Y-16194496D02*
X14621254Y-16251638D01*
X14621254Y-16251638D02*
X14611730Y-16270686D01*
X14611730Y-16270686D02*
X14602206Y-16280210D01*
X14602206Y-16280210D02*
X14583158Y-16289734D01*
X14583158Y-16289734D02*
X14554587Y-16289734D01*
X14678396Y-16156400D02*
X14754587Y-16156400D01*
X14706968Y-16089734D02*
X14706968Y-16261162D01*
X14706968Y-16261162D02*
X14716492Y-16280210D01*
X14716492Y-16280210D02*
X14735539Y-16289734D01*
X14735539Y-16289734D02*
X14754587Y-16289734D01*
X14811730Y-16280210D02*
X14830777Y-16289734D01*
X14830777Y-16289734D02*
X14868873Y-16289734D01*
X14868873Y-16289734D02*
X14887920Y-16280210D01*
X14887920Y-16280210D02*
X14897444Y-16261162D01*
X14897444Y-16261162D02*
X14897444Y-16251638D01*
X14897444Y-16251638D02*
X14887920Y-16232591D01*
X14887920Y-16232591D02*
X14868873Y-16223067D01*
X14868873Y-16223067D02*
X14840301Y-16223067D01*
X14840301Y-16223067D02*
X14821254Y-16213543D01*
X14821254Y-16213543D02*
X14811730Y-16194496D01*
X14811730Y-16194496D02*
X14811730Y-16184972D01*
X14811730Y-16184972D02*
X14821254Y-16165924D01*
X14821254Y-16165924D02*
X14840301Y-16156400D01*
X14840301Y-16156400D02*
X14868873Y-16156400D01*
X14868873Y-16156400D02*
X14887920Y-16165924D01*
X14964111Y-16365924D02*
X14973635Y-16356400D01*
X14973635Y-16356400D02*
X14992682Y-16327829D01*
X14992682Y-16327829D02*
X15002206Y-16308781D01*
X15002206Y-16308781D02*
X15011730Y-16280210D01*
X15011730Y-16280210D02*
X15021254Y-16232591D01*
X15021254Y-16232591D02*
X15021254Y-16194496D01*
X15021254Y-16194496D02*
X15011730Y-16146877D01*
X15011730Y-16146877D02*
X15002206Y-16118305D01*
X15002206Y-16118305D02*
X14992682Y-16099258D01*
X14992682Y-16099258D02*
X14973635Y-16070686D01*
X14973635Y-16070686D02*
X14964111Y-16061162D01*
M02*
